<?xml version="1.0" encoding="UTF-8"?>
<svg version="1.1" xmlns="http://www.w3.org/2000/svg" width="94" height="94">
<path d="M0 0 C0 0.33 0 0.66 0 1 C0.67804687 1.13535156 1.35609375 1.27070313 2.0546875 1.41015625 C8.62666595 2.93026761 12.99255969 5.18104066 18.328125 9.2421875 C21.33395182 11.21970515 24.23110273 12.31917399 27.625 13.5 C35.63662627 16.37814607 42.2332411 21.16514149 46 29 C47.68164701 36.38056187 47.29082169 43.1450704 44 50 C40.14716596 56.08342216 35.64512642 58.94913042 29.16796875 61.83984375 C26.355939 63.34465967 25.34180134 65.15853833 24 68 C22.515 68.495 22.515 68.495 21 69 C20.01 69.495 20.01 69.495 19 70 C16.933859 69.80638958 14.87155799 69.5707708 12.8125 69.3125 C6.52317517 68.75206511 4.11083639 69.52463125 -1 73 C-6.77843266 74.41735141 -12.17495446 73.76182688 -18 73 C-18 72.34 -18 71.68 -18 71 C-19.51561841 69.78091563 -21.03316702 68.56403475 -22.56640625 67.3671875 C-24 66 -24 66 -24.8125 63.3125 C-25.204375 62.549375 -25.59625 61.78625 -26 61 C-27.92376674 60.39673037 -27.92376674 60.39673037 -30.1875 60.0625 C-36.55949385 58.97484888 -40.19161782 55.53173505 -43.875 50.375 C-45.75436345 46.40745493 -46.31275946 43.9184895 -44.9375 39.6875 C-42.86732976 33.94017805 -39.49289316 29.74502521 -34.5 26.25 C-31.82537136 23.84283423 -30.84639599 21.94279198 -29.25 18.75 C-24.68073943 9.9746765 -17.94202331 4.90197381 -9 1 C-9 0.67 -9 0.34 -9 0 C-5.62182575 -0.84454356 -3.32534757 -1.10844919 0 0 Z " fill="#2EB2F1" transform="translate(46,13)"/>
<path d="M0 0 C2 2 2 2 2.1171875 4.3203125 C1.41435583 12.45955672 -0.08624096 18.6069238 -6.25 24.25 C-9.37205084 26.74629496 -12.66197324 28.33427193 -16.27734375 29.9921875 C-18.76633203 31.44833031 -19.7083862 33.48475208 -21 36 C-22.485 36.495 -22.485 36.495 -24 37 C-24.99 37.495 -24.99 37.495 -26 38 C-28.066141 37.80638958 -30.12844201 37.5707708 -32.1875 37.3125 C-38.47682483 36.75206511 -40.88916361 37.52463125 -46 41 C-51.77843266 42.41735141 -57.17495446 41.76182688 -63 41 C-63 40.34 -63 39.68 -63 39 C-64.51561841 37.78091563 -66.03316702 36.56403475 -67.56640625 35.3671875 C-69 34 -69 34 -69.8125 31.3125 C-70.4003125 30.1678125 -70.4003125 30.1678125 -71 29 C-72.92376674 28.39673037 -72.92376674 28.39673037 -75.1875 28.0625 C-81.55949385 26.97484888 -85.19161782 23.53173505 -88.875 18.375 C-90.76056338 14.3943662 -90.76056338 14.3943662 -91 12 C-90.34 11.01 -89.68 10.02 -89 9 C-89 9.66 -89 10.32 -89 11 C-87.74703125 10.95359375 -86.4940625 10.9071875 -85.203125 10.859375 C-83.55210719 10.82185187 -81.90106358 10.78545229 -80.25 10.75 C-79.0125 10.69972656 -79.0125 10.69972656 -77.75 10.6484375 C-71.65684484 10.5501608 -71.65684484 10.5501608 -68.421875 12.765625 C-67 15 -67 15 -67 19 C-63.39625537 19.14500644 -59.79325758 19.23396763 -56.1875 19.3125 C-54.65125977 19.3753418 -54.65125977 19.3753418 -53.08398438 19.43945312 C-50.3064524 19.48498644 -47.73760012 19.47587756 -45 19 C-42.70984006 16.82492822 -42.70984006 16.82492822 -42 14 C-41.67 13.01 -41.34 12.02 -41 11 C-38.49332502 14.76001247 -39 16.50405666 -39 21 C-38.01 21.66 -37.02 22.32 -36 23 C-35.34 23.99 -34.68 24.98 -34 26 C-33.96132812 25.06027344 -33.96132812 25.06027344 -33.921875 24.1015625 C-33.83679687 22.87566406 -33.83679687 22.87566406 -33.75 21.625 C-33.70359375 20.81289062 -33.6571875 20.00078125 -33.609375 19.1640625 C-33 17 -33 17 -30.953125 15.7109375 C-29.98632812 15.35902344 -29.98632812 15.35902344 -29 15 C-29 18.38023517 -29.87455622 20.83468937 -31 24 C-26.29277442 23.63330278 -26.29277442 23.63330278 -22.0625 21.75 C-20.78096157 20.01023368 -20.78096157 20.01023368 -21.125 17.68359375 C-20.89484188 12.74238665 -17.4262046 9.33904088 -14 6 C-10.5 4.6875 -10.5 4.6875 -7 4 C-4.56775399 2.79577644 -2.31819761 1.41930466 0 0 Z " fill="#1E65C9" transform="translate(91,45)"/>
<path d="M0 0 C0 0.33 0 0.66 0 1 C0.67804687 1.13535156 1.35609375 1.27070313 2.0546875 1.41015625 C8.62666595 2.93026761 12.99255969 5.18104066 18.328125 9.2421875 C21.33395182 11.21970515 24.23110273 12.31917399 27.625 13.5 C35.09181186 16.16797641 40.63693727 20.32319188 45 27 C45 27.99 45 28.98 45 30 C43.02 30.33 41.04 30.66 39 31 C39 29.02 39 27.04 39 25 C37.68 24.67 36.36 24.34 35 24 C35 23.34 35 22.68 35 22 C31.04 21.34 27.08 20.68 23 20 C22.505 18.515 22.505 18.515 22 17 C19.90861544 15.76049958 19.90861544 15.76049958 17.4375 14.8125 C16.61121094 14.46832031 15.78492188 14.12414063 14.93359375 13.76953125 C14.29550781 13.51558594 13.65742187 13.26164062 13 13 C13 12.34 13 11.68 13 11 C11.65104264 10.48611148 10.29543517 9.98967278 8.9375 9.5 C8.18339844 9.2215625 7.42929687 8.943125 6.65234375 8.65625 C3.18022244 7.79716844 0.56852461 7.54754098 -3 8 C-5.23708546 9.88023135 -6.82678965 11.45803281 -8.625 13.6875 C-9.53279524 14.75480783 -10.44164173 15.82122244 -11.3515625 16.88671875 C-11.78927979 17.40983643 -12.22699707 17.9329541 -12.67797852 18.47192383 C-14.66562551 20.76937212 -16.82924544 22.8769947 -19 25 C-22.70305539 28.90322055 -23.11233321 30.7203389 -23 36 C-23.921875 38.16796875 -23.921875 38.16796875 -26 40 C-29.07251776 40.50582007 -32.08440117 40.37479593 -35.1875 40.25 C-36.4549707 40.22292969 -36.4549707 40.22292969 -37.74804688 40.1953125 C-39.83251573 40.14820586 -41.91640144 40.07646233 -44 40 C-43.47180762 36.33409337 -42.72968626 34.19199685 -40.25 31.4375 C-39.70859375 30.83292969 -39.1671875 30.22835937 -38.609375 29.60546875 C-37 28 -37 28 -34.5 26.25 C-31.82537136 23.84283423 -30.84639599 21.94279198 -29.25 18.75 C-24.68073943 9.9746765 -17.94202331 4.90197381 -9 1 C-9 0.67 -9 0.34 -9 0 C-5.62182575 -0.84454356 -3.32534757 -1.10844919 0 0 Z " fill="#6BECFE" transform="translate(46,13)"/>
<path d="M0 0 C-0.07962706 2.70732002 -0.53870569 4.47568002 -2.34375 6.52734375 C-5.44189401 9.29454965 -8.47394687 11.33151816 -12.25 13.0625 C-15.86759061 14.72143365 -17.16159522 16.41994858 -19 20 C-19.99 20.33 -20.98 20.66 -22 21 C-22.99 21.495 -22.99 21.495 -24 22 C-26.066141 21.80638958 -28.12844201 21.5707708 -30.1875 21.3125 C-36.47682483 20.75206511 -38.88916361 21.52463125 -44 25 C-49.77843266 26.41735141 -55.17495446 25.76182688 -61 25 C-61 24.34 -61 23.68 -61 23 C-62.51561841 21.78091563 -64.03316702 20.56403475 -65.56640625 19.3671875 C-67 18 -67 18 -67.8125 15.3125 C-68.74683122 12.82798663 -68.74683122 12.82798663 -70.97265625 12.34765625 C-72.57863223 12.03168374 -74.18822179 11.73357012 -75.80078125 11.453125 C-78.53277526 10.89022748 -80.14407494 10.09800224 -82 8 C-82 6.68 -82 5.36 -82 4 C-73.02090137 4.76094056 -73.02090137 4.76094056 -69 8 C-66.75833298 10.98888937 -65.18134172 13.45597484 -64 17 C-63.40832031 16.98839844 -62.81664063 16.97679688 -62.20703125 16.96484375 C-57.96484842 16.91640121 -54.15563618 17.07652529 -50 18 C-45.62689845 18.43731016 -43.65810653 17.31977487 -40 15 C-36.27396392 13.47916895 -33.84545592 12.52097849 -30 14 C-30 14.66 -30 15.32 -30 16 C-26.37 15.67 -22.74 15.34 -19 15 C-18.34 13.35 -17.68 11.7 -17 10 C-16.34 10 -15.68 10 -15 10 C-15 9.01 -15 8.02 -15 7 C-12.69718545 5.33685616 -10.70803476 4.17164479 -7.9375 3.5 C-4.78940662 2.6875888 -3.27125433 0 0 0 Z " fill="#1A2BAF" transform="translate(89,61)"/>
<path d="M0 0 C0.33 0.66 0.66 1.32 1 2 C2.25296875 1.95359375 3.5059375 1.9071875 4.796875 1.859375 C6.44789281 1.82185187 8.09893642 1.78545229 9.75 1.75 C10.9875 1.69972656 10.9875 1.69972656 12.25 1.6484375 C18.34315516 1.5501608 18.34315516 1.5501608 21.578125 3.765625 C23 6 23 6 23 10 C26.60374463 10.14500644 30.20674242 10.23396763 33.8125 10.3125 C35.34874023 10.3753418 35.34874023 10.3753418 36.91601562 10.43945312 C39.6935476 10.48498644 42.26239988 10.47587756 45 10 C47.29015994 7.82492822 47.29015994 7.82492822 48 5 C48.33 4.01 48.66 3.02 49 2 C51.50667498 5.76001247 51 7.50405666 51 12 C49.875 14.6875 49.875 14.6875 48 17 C42.9000994 18.2571848 37.66541239 18.28604867 32.4375 18.375 C31.60025391 18.41238281 30.76300781 18.44976562 29.90039062 18.48828125 C25.42007098 18.55213379 23.63024494 18.51671737 20.05078125 15.58203125 C19.37402344 14.72996094 18.69726562 13.87789062 18 13 C13.71521068 9.78640801 9.16559188 8.95659109 4 8 C4.66 9.98 5.32 11.96 6 14 C4.66666667 12.66666667 3.33333333 11.33333333 2 10 C1.401875 9.566875 0.80375 9.13375 0.1875 8.6875 C-1 7 -1 7 -0.6875 3.3125 C-0.460625 2.219375 -0.23375 1.12625 0 0 Z " fill="#278DF1" transform="translate(1,54)"/>
<path d="M0 0 C0 0.33 0 0.66 0 1 C0.67804687 1.13535156 1.35609375 1.27070313 2.0546875 1.41015625 C8.62666595 2.93026761 12.99255969 5.18104066 18.328125 9.2421875 C21.33395182 11.21970515 24.23110273 12.31917399 27.625 13.5 C34.78723632 16.05371354 39.77557498 19.66336247 44 26 C41.32939125 24.87012707 39.69308693 23.70882606 37.5625 21.6875 C34.57906249 19.09582701 31.52555199 17.98970781 27.8125 16.6875 C21.83055811 14.54767393 17.35446136 11.65941074 12.4375 7.671875 C7.58122765 4.34097025 1.71074409 4.55352364 -4 5 C-6.78566059 5.91257306 -6.78566059 5.91257306 -9 7 C-9.99 7 -10.98 7 -12 7 C-12.2475 7.515625 -12.495 8.03125 -12.75 8.5625 C-13.1625 9.366875 -13.575 10.17125 -14 11 C-14.556875 12.155 -15.11375 13.31 -15.6875 14.5 C-17.29736416 17.36130574 -18.69414683 18.60621329 -21.625 20.0625 C-25.23603747 21.63014477 -25.23603747 21.63014477 -25.90625 24.8515625 C-27.22089996 28.63587632 -28.72199293 29.9033032 -31.875 32.3125 C-32.73867188 32.98925781 -33.60234375 33.66601562 -34.4921875 34.36328125 C-36.8040969 35.87214424 -38.36835145 36.40404371 -41 37 C-41.33 37.66 -41.66 38.32 -42 39 C-42.66 39 -43.32 39 -44 39 C-42.26611099 33.64070671 -39.20734888 29.52816461 -34.5625 26.3125 C-31.8537967 23.86806044 -30.86472637 21.98390102 -29.25 18.75 C-24.68073943 9.9746765 -17.94202331 4.90197381 -9 1 C-9 0.67 -9 0.34 -9 0 C-5.62182575 -0.84454356 -3.32534757 -1.10844919 0 0 Z " fill="#A3F4FE" transform="translate(46,13)"/>
<path d="M0 0 C6.77271708 0.17245344 11.72825613 1.62584322 17 6 C17.99 7.485 17.99 7.485 19 9 C20.91089444 9.4470345 20.91089444 9.4470345 23.10546875 9.36328125 C23.92466797 9.36263672 24.74386719 9.36199219 25.58789062 9.36132812 C26.44576172 9.34521484 27.30363281 9.32910156 28.1875 9.3125 C29.44530273 9.31733398 29.44530273 9.31733398 30.72851562 9.32226562 C35.87290428 9.27809055 40.1220939 8.61976271 45 7 C46.66246041 6.64628502 48.32774271 6.30404678 50 6 C50.495 7.485 50.495 7.485 51 9 C55.00320593 11.81707084 59.08407227 11.13063144 63.75 10.8125 C66.26279616 10.2034656 66.26279616 10.2034656 67.1875 7.5 C67.455625 6.675 67.72375 5.85 68 5 C68.66 4.67 69.32 4.34 70 4 C69.67 5.65 69.34 7.3 69 9 C68.34 9 67.68 9 67 9 C66.67 10.98 66.34 12.96 66 15 C62.04 15 58.08 15 54 15 C54 14.34 54 13.68 54 13 C48.31658349 12.43165835 44.79987433 14.30817858 40 17 C37.01405576 18.49297212 34.29146376 18.11755228 31 18 C30.34 17.67 29.68 17.34 29 17 C28.36707031 17.01160156 27.73414062 17.02320312 27.08203125 17.03515625 C24.43378045 17.06706289 22.50765837 16.89087863 20 16 C17.8906112 13.5844096 16.3036968 11.048281 14.6171875 8.32421875 C13.08684527 5.74689048 13.08684527 5.74689048 9.9375 4.375 C6.91518095 3.98917204 4.04325278 3.8550832 1 4 C0.67 2.68 0.34 1.36 0 0 Z " fill="#1B43D1" transform="translate(5,62)"/>
<path d="M0 0 C0.66 0.33 1.32 0.66 2 1 C0.58474822 2.58459815 -0.8322642 4.16762391 -2.25 5.75 C-3.03890625 6.63171875 -3.8278125 7.5134375 -4.640625 8.421875 C-7 11 -7 11 -9.20703125 13.0390625 C-11.21896452 15.23947754 -11.74190643 16.75627618 -12.4375 19.625 C-13.71486537 23.80734147 -13.71486537 23.80734147 -16.3125 25.5625 C-19.34586175 26.05630308 -21.93531703 26.33311771 -25 26 C-26.68359375 24.765625 -26.68359375 24.765625 -28 23 C-28.21484375 20.80859375 -28.21484375 20.80859375 -27.9375 18.4375 C-27.86402344 17.65246094 -27.79054687 16.86742188 -27.71484375 16.05859375 C-27 14 -27 14 -24.94140625 12.72265625 C-24.30074219 12.48417969 -23.66007812 12.24570312 -23 12 C-23 15.38023517 -23.87455622 17.83468937 -25 21 C-20.29277442 20.63330278 -20.29277442 20.63330278 -16.0625 18.75 C-14.78096157 17.01023368 -14.78096157 17.01023368 -15.125 14.68359375 C-14.89517488 9.74953575 -11.43199966 6.32578691 -8 3 C-5.56655283 1.79044767 -3.72010162 1.43521626 -1 1 C-0.67 0.67 -0.34 0.34 0 0 Z " fill="#2160DF" transform="translate(85,48)"/>
<path d="M0 0 C-0.78375 0.7425 -1.5675 1.485 -2.375 2.25 C-5.28846846 5.29622204 -5.28846846 5.29622204 -7 9 C-6.979375 9.825 -6.95875 10.65 -6.9375 11.5 C-7 14 -7 14 -7.9296875 16.140625 C-11.26721419 19.1381018 -14.87467629 18.42344689 -19.1875 18.25 C-20.03248047 18.23195313 -20.87746094 18.21390625 -21.74804688 18.1953125 C-23.83251573 18.14820586 -25.91640144 18.07646233 -28 18 C-27.34 17.67 -26.68 17.34 -26 17 C-25.67 16.01 -25.34 15.02 -25 14 C-23.34948144 13.29430125 -21.6790164 12.63492217 -20 12 C-18.08842803 10.76310049 -16.21395478 9.46748765 -14.375 8.125 C-13.43398438 7.44695313 -12.49296875 6.76890625 -11.5234375 6.0703125 C-9.21900243 4.17967692 -7.72703577 2.39489251 -6 0 C-3.37169607 -1.03539246 -2.55664546 -1.27832273 0 0 Z " fill="#4BDFFE" transform="translate(30,35)"/>
<path d="M0 0 C0 0.33 0 0.66 0 1 C2.475 1.495 2.475 1.495 5 2 C5 2.33 5 2.66 5 3 C3.93072266 3.07347656 3.93072266 3.07347656 2.83984375 3.1484375 C-5.25929542 3.75036689 -5.25929542 3.75036689 -13 6 C-14.12516085 7.83284443 -14.12516085 7.83284443 -15 10 C-20.18299098 14.84496982 -20.18299098 14.84496982 -23.05859375 15.390625 C-25.15355637 15.82268962 -25.15355637 15.82268962 -26.16796875 17.78515625 C-26.50441406 18.53667969 -26.84085938 19.28820312 -27.1875 20.0625 C-29.65203509 24.89943802 -32.83850305 27.7042022 -36.97265625 31.13671875 C-39.6091556 33.55985977 -40.7548211 35.67952292 -42 39 C-42.66 39 -43.32 39 -44 39 C-42.26611099 33.64070671 -39.20734888 29.52816461 -34.5625 26.3125 C-31.8537967 23.86806044 -30.86472637 21.98390102 -29.25 18.75 C-24.68073943 9.9746765 -17.94202331 4.90197381 -9 1 C-9 0.67 -9 0.34 -9 0 C-5.62182575 -0.84454356 -3.32534757 -1.10844919 0 0 Z " fill="#D0FBFE" transform="translate(46,13)"/>
<path d="M0 0 C6.06630902 0.13426438 10.0265831 0.55965935 14.83203125 4.5546875 C17.80139019 6.53426013 21.04211042 7.60410299 24.375 8.8125 C30.9628089 11.26710007 36.55318193 14.34808219 41 20 C41 20.99 41 21.98 41 23 C38.03 23.495 38.03 23.495 35 24 C35 22.02 35 20.04 35 18 C33.68 17.67 32.36 17.34 31 17 C31 16.34 31 15.68 31 15 C25.06 14.01 25.06 14.01 19 13 C18.67 12.01 18.34 11.02 18 10 C15.90861544 8.76049958 15.90861544 8.76049958 13.4375 7.8125 C12.61121094 7.46832031 11.78492188 7.12414062 10.93359375 6.76953125 C10.29550781 6.51558594 9.65742187 6.26164062 9 6 C9 5.34 9 4.68 9 4 C6.03 3.01 3.06 2.02 0 1 C0 0.67 0 0.34 0 0 Z " fill="#62DCFE" transform="translate(50,20)"/>
<path d="M0 0 C2.43816585 -0.0809723 4.87364384 -0.14046972 7.3125 -0.1875 C8.34793945 -0.22520508 8.34793945 -0.22520508 9.40429688 -0.26367188 C14.53252102 -0.33799396 14.53252102 -0.33799396 16.91796875 1.38671875 C18 3 18 3 19 5 C19.99 5.33 20.98 5.66 22 6 C22 6.66 22 7.32 22 8 C22.68102783 7.93941406 23.36205566 7.87882812 24.0637207 7.81640625 C27.14652873 7.5429165 30.22951041 7.27143513 33.3125 7 C34.38435547 6.90460938 35.45621094 6.80921875 36.56054688 6.7109375 C37.58857422 6.62070313 38.61660156 6.53046875 39.67578125 6.4375 C40.62364502 6.35371094 41.57150879 6.26992187 42.5480957 6.18359375 C45 6 45 6 48 6 C44.49727728 10.0216446 42.13367942 10.76912792 36.89575195 11.1550293 C34.42959822 11.27852796 31.96883033 11.33341174 29.5 11.375 C28.65824219 11.41238281 27.81648438 11.44976562 26.94921875 11.48828125 C22.45305998 11.55200633 20.63762406 11.52138612 17.04296875 8.58203125 C16.36878906 7.72996094 15.69460937 6.87789063 15 6 C10.5060594 2.53324582 5.47312243 1.90333089 0 1 C0 0.67 0 0.34 0 0 Z " fill="#206EE5" transform="translate(4,61)"/>
<path d="M0 0 C0.66 0.33 1.32 0.66 2 1 C4.33189345 1.26955833 6.66321507 1.44507377 9.00390625 1.62109375 C9.66261719 1.74613281 10.32132813 1.87117188 11 2 C11.495 2.99 11.495 2.99 12 4 C1.97365521 5.17850346 1.97365521 5.17850346 -2.75 4.3125 C-6.54858711 3.94725124 -8.11387322 4.98677242 -11.26171875 7.00390625 C-16.92187211 10.24736492 -23.84116295 8.80548171 -30 8 C-30 7.34 -30 6.68 -30 6 C-31.45833358 4.37485532 -31.45833358 4.37485532 -33 3 C-26.25 4.875 -26.25 4.875 -24 6 C-19.7078944 6.61988362 -15.65707898 7.00813184 -11.85546875 4.6953125 C-10.15181116 3.19609382 -8.58315728 1.62363573 -7 0 C-4.30919898 -1.34540051 -2.86443593 -0.71610898 0 0 Z " fill="#2B3396" transform="translate(58,78)"/>
<path d="M0 0 C-0.07962706 2.70732002 -0.53870569 4.47568002 -2.34375 6.52734375 C-6.00872679 9.80083438 -9.75672778 12.00165284 -14.19921875 14.0546875 C-16.58628311 15.30776684 -18.25563403 16.96490636 -20 19 C-20.33 17.68 -20.66 16.36 -21 15 C-20.01 14.67 -19.02 14.34 -18 14 C-17.26676204 11.98491642 -17.26676204 11.98491642 -17 10 C-16.34 10 -15.68 10 -15 10 C-15 9.01 -15 8.02 -15 7 C-12.69718545 5.33685616 -10.70803476 4.17164479 -7.9375 3.5 C-4.78940662 2.6875888 -3.27125433 0 0 0 Z " fill="#334CA5" transform="translate(89,61)"/>
<path d="M0 0 C6.77271708 0.17245344 11.72825613 1.62584322 17 6 C17.99 7.485 17.99 7.485 19 9 C20.945118 9.43090881 20.945118 9.43090881 23.17578125 9.328125 C24.00400391 9.32296875 24.83222656 9.3178125 25.68554688 9.3125 C26.98588867 9.2815625 26.98588867 9.2815625 28.3125 9.25 C29.16779297 9.24484375 30.02308594 9.2396875 30.90429688 9.234375 C35.04980144 9.18299772 38.95960607 9.03300793 43 8 C42.375 9.9375 42.375 9.9375 41 12 C36.04376367 13.29788118 31.45729163 12.92739628 26.4375 12.375 C25.3247168 12.28798828 25.3247168 12.28798828 24.18945312 12.19921875 C18.84812029 11.61894929 16.60746765 10.17603592 13 6 C8.88802238 4.1627334 5.47875565 3.78672592 1 4 C0.67 2.68 0.34 1.36 0 0 Z " fill="#1D50D9" transform="translate(5,62)"/>
<path d="M0 0 C9.4091941 0.79738933 9.4091941 0.79738933 13 4 C14.97560543 7.20569937 16.72241194 10.45317219 18 14 C17.67 14.66 17.34 15.32 17 16 C13 11.25 13 11.25 13 9 C12.39671875 8.89042969 11.7934375 8.78085938 11.171875 8.66796875 C2.63035137 6.97344067 2.63035137 6.97344067 0 4 C0 2.68 0 1.36 0 0 Z " fill="#1A3FA8" transform="translate(7,65)"/>
<path d="M0 0 C9.5814301 -0.81461551 15.38344121 -0.73908681 23.3046875 5.125 C26.21180861 7.14734512 29.02164873 8.39379926 32.3125 9.6875 C40.04844764 12.77189719 44.87371171 16.52851549 50 23 C47.33769821 21.76734864 45.73641293 20.74993022 43.5625 18.6875 C40.57906249 16.09582701 37.52555199 14.98970781 33.8125 13.6875 C28.99322764 11.97954117 25.60106663 10.08759957 21.6875 6.8125 C15.11302872 1.63290913 8.08386075 1.40571447 0 1 C0 0.67 0 0.34 0 0 Z " fill="#B8ECFE" transform="translate(40,16)"/>
<path d="M0 0 C2 3 2 3 2 6 C0.33333333 10.66666667 0.33333333 10.66666667 -1 12 C-8.66499677 13.1692368 -16.25996896 13.09909001 -24 13 C-24 12.34 -24 11.68 -24 11 C-22.83082031 10.89042969 -21.66164063 10.78085938 -20.45703125 10.66796875 C-18.90878806 10.50845279 -17.36061442 10.34826086 -15.8125 10.1875 C-14.65911133 10.08211914 -14.65911133 10.08211914 -13.48242188 9.97460938 C-9.00007732 9.49367112 -5.62899653 8.90319723 -2 6 C-0.64019119 2.92438754 -0.64019119 2.92438754 0 0 Z " fill="#247AEB" transform="translate(50,56)"/>
<path d="M0 0 C0.33 0.66 0.66 1.32 1 2 C5.51533625 3.50511208 10.11147152 3.28403785 14.84765625 3.42578125 C15.88792969 3.61527344 16.92820312 3.80476563 18 4 C18.66 5.32 19.32 6.64 20 8 C14.72 8 9.44 8 4 8 C4.66 9.98 5.32 11.96 6 14 C4.66666667 12.66666667 3.33333333 11.33333333 2 10 C1.401875 9.566875 0.80375 9.13375 0.1875 8.6875 C-1 7 -1 7 -0.6875 3.3125 C-0.460625 2.219375 -0.23375 1.12625 0 0 Z " fill="#2D85DA" transform="translate(1,54)"/>
<path d="M0 0 C0.99 0.33 1.98 0.66 3 1 C3.22852156 3.74225869 3.16687374 5.61619039 2.0625 8.15625 C-1.27100379 11.13620036 -4.88837355 10.42289604 -9.1875 10.25 C-10.03248047 10.23195313 -10.87746094 10.21390625 -11.74804688 10.1953125 C-13.83251573 10.14820586 -15.91640144 10.07646233 -18 10 C-15.69354292 7.69354292 -14.93334617 7.70120667 -11.8125 7.25 C-7.18536146 6.34841584 -4.74961378 4.48812822 -1.5078125 1.14453125 C-0.76144531 0.57798828 -0.76144531 0.57798828 0 0 Z " fill="#41D3FD" transform="translate(20,43)"/>
<path d="M0 0 C0.66 0.66 1.32 1.32 2 2 C0.700625 1.835 -0.59875 1.67 -1.9375 1.5 C-2.76378906 1.42136719 -3.59007813 1.34273437 -4.44140625 1.26171875 C-7 1 -7 1 -9.21484375 0.58203125 C-13.55077349 0.04102012 -15.42162101 0.57165447 -19.01171875 3.23046875 C-21.8126365 5.68984375 -24.42596584 8.30568387 -27 11 C-27 6.91759845 -25.57766804 4.07141854 -23 1 C-16.1922748 -3.41042242 -7.23262077 -3.17529692 0 0 Z " fill="#70F1FE" transform="translate(57,19)"/>
<path d="M0 0 C0.66 0.33 1.32 0.66 2 1 C-1.60620937 5.55251963 -4.98341513 8.9464266 -10 12 C-11.34175973 12.98866506 -12.67896002 13.9838154 -14 15 C-14 10.09596765 -12.71436869 8.51364816 -9.796875 4.76953125 C-7.05654923 2.07090609 -4.73974248 1.65995455 -1 1 C-0.67 0.67 -0.34 0.34 0 0 Z " fill="#1E78D9" transform="translate(85,48)"/>
<path d="M0 0 C8.3592738 1.07170177 16.4839318 3.18916338 22 10 C22 10.99 22 11.98 22 13 C20.02 13.33 18.04 13.66 16 14 C16 12.02 16 10.04 16 8 C14.68 7.67 13.36 7.34 12 7 C12 6.34 12 5.68 12 5 C6.06 4.01 6.06 4.01 0 3 C0 2.01 0 1.02 0 0 Z " fill="#4CD0FE" transform="translate(69,30)"/>
<path d="M0 0 C0 0.66 0 1.32 0 2 C3.3 2 6.6 2 10 2 C10 2.99 10 3.98 10 5 C4.23502405 5.33911623 0.95850879 5.16793617 -4 2 C-6.53176909 2.17295995 -6.53176909 2.17295995 -9 3 C-10.66666667 3.33333333 -12.33333333 3.66666667 -14 4 C-12.63215249 1.26430498 -10.66237461 0.66368786 -7.921875 -0.46875 C-5.09100878 -1.25126587 -2.79298073 -0.74933629 0 0 Z " fill="#1A31BD" transform="translate(59,75)"/>
<path d="M0 0 C0.66 0.33 1.32 0.66 2 1 C-0.93466752 4.36943308 -2.59671177 5.44379517 -7 6 C-10.2722936 6.11152638 -13.53882139 6.09423589 -16.8125 6.0625 C-17.69615234 6.05798828 -18.57980469 6.05347656 -19.49023438 6.04882812 C-21.66018559 6.03709866 -23.83010172 6.01916495 -26 6 C-26.66 4.68 -27.32 3.36 -28 2 C-26.92105469 2.48533203 -26.92105469 2.48533203 -25.8203125 2.98046875 C-17.72462406 5.90702648 -8.86821726 3.80178216 -1 1 C-0.67 0.67 -0.34 0.34 0 0 Z " fill="#1F5FE1" transform="translate(50,66)"/>
<path d="M0 0 C0.99 0 1.98 0 3 0 C2.01 2.97 1.02 5.94 0 9 C4.55737263 8.56179109 7.57653445 8.14958831 11 5 C10.49396008 7.16874252 10.00016187 8.99967627 9 11 C7.54207116 11.05399736 6.08357288 11.09279177 4.625 11.125 C3.81289063 11.14820312 3.00078125 11.17140625 2.1640625 11.1953125 C0 11 0 11 -2 9 C-2.25 5.5 -2.25 5.5 -2 2 C-1.34 1.34 -0.68 0.68 0 0 Z " fill="#2E7AEA" transform="translate(60,60)"/>
<path d="M0 0 C0.59554687 0.20496094 1.19109375 0.40992187 1.8046875 0.62109375 C-7.66847554 5.7865408 -14.52541355 7.01655337 -25.1953125 5.62109375 C-25.1953125 4.96109375 -25.1953125 4.30109375 -25.1953125 3.62109375 C-26.65364608 1.99594907 -26.65364608 1.99594907 -28.1953125 0.62109375 C-21.4453125 2.49609375 -21.4453125 2.49609375 -19.1953125 3.62109375 C-14.12240238 4.18681133 -9.73351414 4.33479435 -5.3203125 1.55859375 C-2.1953125 -0.37890625 -2.1953125 -0.37890625 0 0 Z " fill="#414185" transform="translate(53.1953125,80.37890625)"/>
<path d="M0 0 C0.33 0.99 0.66 1.98 1 3 C-7.33823529 9.48529412 -7.33823529 9.48529412 -13 9 C-11.71034824 7.62437146 -10.37310707 6.29233607 -9 5 C-8.34 5 -7.68 5 -7 5 C-6.773125 4.360625 -6.54625 3.72125 -6.3125 3.0625 C-5 1 -5 1 -2.375 0.25 C-1.59125 0.1675 -0.8075 0.085 0 0 Z " fill="#2496E2" transform="translate(91,42)"/>
<path d="M0 0 C1.546875 0.680625 1.546875 0.680625 3.125 1.375 C5.45322845 2.37951792 7.70179131 3.22457322 10.125 4 C13.04167447 5.01449547 15.41404609 6.32673571 18 8 C17.01 8.33 16.02 8.66 15 9 C14.34 8.67 13.68 8.34 13 8 C11.54280253 7.89872759 10.0841349 7.81786674 8.625 7.75 C4.95790465 7.38978612 4.23513312 7.22366321 1.4375 4.5625 C0 2 0 2 0 0 Z " fill="#1A39C4" transform="translate(21,71)"/>
<path d="M0 0 C1.21236328 0.04060547 1.21236328 0.04060547 2.44921875 0.08203125 C3.06410156 0.11683594 3.67898437 0.15164062 4.3125 0.1875 C4.3125 0.5175 4.3125 0.8475 4.3125 1.1875 C2.76369141 1.24744141 2.76369141 1.24744141 1.18359375 1.30859375 C-3.77049666 2.43338723 -5.48622668 4.45134625 -8.625 8.25 C-9.36459961 9.10174805 -9.36459961 9.10174805 -10.11914062 9.97070312 C-11.32419475 11.36295013 -12.50807812 12.77347341 -13.6875 14.1875 C-13.6875 10.64819683 -12.99742012 9.91411271 -10.875 7.1875 C-10.09189453 6.1665625 -10.09189453 6.1665625 -9.29296875 5.125 C-8.76316406 4.485625 -8.23335937 3.84625 -7.6875 3.1875 C-7.2234375 2.61386719 -6.759375 2.04023438 -6.28125 1.44921875 C-4.11729408 -0.26391302 -2.72134355 -0.11831928 0 0 Z " fill="#54EFFF" transform="translate(45.6875,18.8125)"/>
<path d="M0 0 C2.58445773 -0.1081866 5.16437352 -0.18737237 7.75 -0.25 C8.47960938 -0.28351562 9.20921875 -0.31703125 9.9609375 -0.3515625 C13.67144375 -0.41902625 15.57156961 -0.34327652 18.515625 2.015625 C19.00546875 2.67046875 19.4953125 3.3253125 20 4 C19.67 4.99 19.34 5.98 19 7 C18.23236328 6.02933594 18.23236328 6.02933594 17.44921875 5.0390625 C14.18467888 2.32121591 12.01090171 2.47071486 7.8125 2.375 C5.53904377 2.31412476 3.26500305 2.20511024 1 2 C0.67 1.34 0.34 0.68 0 0 Z " fill="#229EEE" transform="translate(4,56)"/>
<path d="M0 0 C6.2049038 0.2757735 10.10160999 1.10640794 15 5 C14.67 5.66 14.34 6.32 14 7 C12.96875 6.505 11.9375 6.01 10.875 5.5 C7.47548422 4.02526098 4.72978451 3.72708894 1 4 C0.67 2.68 0.34 1.36 0 0 Z " fill="#1A52C0" transform="translate(5,62)"/>
<path d="M0 0 C7.875 0.875 7.875 0.875 9 2 C10.84891946 2.23363881 12.70488031 2.41303635 14.5625 2.5625 C15.57441406 2.64628906 16.58632813 2.73007813 17.62890625 2.81640625 C18.80259766 2.90728516 18.80259766 2.90728516 20 3 C19.67 3.66 19.34 4.32 19 5 C11.64825194 5.55253221 6.488417 4.51064108 0 1 C0 0.67 0 0.34 0 0 Z " fill="#1F2691" transform="translate(25,80)"/>
<path d="M0 0 C1.4540625 0.0309375 1.4540625 0.0309375 2.9375 0.0625 C2.6075 0.7225 2.2775 1.3825 1.9375 2.0625 C-1.39500502 3.17333501 -3.99288958 3.23009585 -7.5 3.25 C-8.63308594 3.26417969 -9.76617187 3.27835937 -10.93359375 3.29296875 C-13.91707979 3.07321135 -15.55545423 2.62093386 -18.0625 1.0625 C-17.06347656 1.07410156 -16.06445312 1.08570313 -15.03515625 1.09765625 C-13.74480469 1.10667969 -12.45445313 1.11570313 -11.125 1.125 C-9.19333984 1.14240234 -9.19333984 1.14240234 -7.22265625 1.16015625 C-3.61064766 1.0485367 -3.57872837 0.07303527 0 0 Z " fill="#32A0F7" transform="translate(42.0625,61.9375)"/>
<path d="M0 0 C4.14536674 0.4710644 6.9919792 0.9919792 10 4 C10 4.99 10 5.98 10 7 C8.02 7.33 6.04 7.66 4 8 C4 6.02 4 4.04 4 2 C2.68 1.67 1.36 1.34 0 1 C0 0.67 0 0.34 0 0 Z " fill="#54BEF3" transform="translate(81,36)"/>
<path d="M0 0 C-1.5830577 4.2742558 -4.50568404 6.26531794 -8 9 C-8.99 8.34 -9.98 7.68 -11 7 C-9.54634731 5.82750647 -8.08692581 4.66216184 -6.625 3.5 C-5.40683594 2.52546875 -5.40683594 2.52546875 -4.1640625 1.53125 C-2 0 -2 0 0 0 Z " fill="#B9FCFE" transform="translate(33,19)"/>
<path d="M0 0 C1.0209375 0.433125 1.0209375 0.433125 2.0625 0.875 C5.34405907 2.1317673 8.58657833 3.16274563 12 4 C12.66 3.67 13.32 3.34 14 3 C14.69710731 4.28650706 15.38242876 5.57940665 16.0625 6.875 C16.44535156 7.59429687 16.82820313 8.31359375 17.22265625 9.0546875 C17.60744141 10.01761719 17.60744141 10.01761719 18 11 C17.67 11.66 17.34 12.32 17 13 C13 8.25 13 8.25 13 6 C12.39671875 5.90203125 11.7934375 5.8040625 11.171875 5.703125 C6.29421718 4.79053096 3.16176612 4.12404277 0 0 Z " fill="#3E498F" transform="translate(7,68)"/>
<path d="M0 0 C2 2 2 2 2.046875 4.42578125 C1.94890625 5.37839844 1.8509375 6.33101562 1.75 7.3125 C1.61851563 8.72982422 1.61851563 8.72982422 1.484375 10.17578125 C0.99727323 13.01589884 0.1671978 15.37380495 -1 18 C-2.25985286 14.22044143 -1.64024579 11.15576548 -1.0625 7.3125 C-0.96259766 6.61060547 -0.86269531 5.90871094 -0.75976562 5.18554688 C-0.51270675 3.45613473 -0.25717148 1.7279373 0 0 Z " fill="#437DC5" transform="translate(91,45)"/>
<path d="M0 0 C0.66 0.33 1.32 0.66 2 1 C-6.261959 7.70387244 -6.261959 7.70387244 -11 8 C-10.5 6.1875 -10.5 6.1875 -9 4 C-6.96304582 3.02598865 -4.92458579 2.30831981 -2.77734375 1.61328125 C-0.99877003 1.14469894 -0.99877003 1.14469894 0 0 Z " fill="#1E87DD" transform="translate(85,48)"/>
<path d="M0 0 C1.91541138 -0.10841951 3.83259773 -0.18578079 5.75 -0.25 C6.81734375 -0.29640625 7.8846875 -0.3428125 8.984375 -0.390625 C12.63802112 0.08264522 13.72228105 1.19155042 16 4 C15.67 4.66 15.34 5.32 15 6 C14.071875 5.319375 14.071875 5.319375 13.125 4.625 C8.9069413 2.43160948 4.66024414 1.76916651 0 1 C0 0.67 0 0.34 0 0 Z " fill="#1A65D2" transform="translate(4,61)"/>
<path d="M0 0 C0 0.99 0 1.98 0 3 C-1.4609375 4.28125 -1.4609375 4.28125 -3.375 5.5 C-6.11457786 7.25874134 -7.11523332 8.17284998 -9 11 C-12.125 11.1875 -12.125 11.1875 -15 11 C-14 9 -14 9 -11.73828125 8.1015625 C-8.7512929 6.8999495 -6.6876438 5.39004127 -4.1875 3.375 C-3.39730469 2.74335937 -2.60710938 2.11171875 -1.79296875 1.4609375 C-1.20128906 0.97882812 -0.60960937 0.49671875 0 0 Z " fill="#71E5FE" transform="translate(19,40)"/>
<path d="M0 0 C0 1.65 0 3.3 0 5 C-3.33333333 5.66666667 -6.66666667 6.33333333 -10 7 C-3.36842105 0 -3.36842105 0 0 0 Z " fill="#25A2E8" transform="translate(65,37)"/>
<path d="M0 0 C0.66 0.33 1.32 0.66 2 1 C-0.97 4.3 -3.94 7.6 -7 11 C-7 7.91598626 -6.65790902 6.96336044 -5.1875 4.375 C-4.85105469 3.76398437 -4.51460937 3.15296875 -4.16796875 2.5234375 C-3 1 -3 1 0 0 Z " fill="#7DF6FE" transform="translate(37,19)"/>
<path d="M0 0 C0.33 0.99 0.66 1.98 1 3 C-1 5 -1 5 -3.6015625 5.1953125 C-4.59929687 5.17210938 -5.59703125 5.14890625 -6.625 5.125 C-8.12933594 5.09792969 -8.12933594 5.09792969 -9.6640625 5.0703125 C-10.43492188 5.04710938 -11.20578125 5.02390625 -12 5 C-12 4.34 -12 3.68 -12 3 C-10.95199219 2.92652344 -10.95199219 2.92652344 -9.8828125 2.8515625 C-8.97273438 2.77679688 -8.06265625 2.70203125 -7.125 2.625 C-6.22007813 2.55539063 -5.31515625 2.48578125 -4.3828125 2.4140625 C-1.82058097 2.20431868 -1.82058097 2.20431868 0 0 Z " fill="#1D3DCC" transform="translate(71,72)"/>
<path d="M0 0 C0 3 0 3 -2.1875 5.5625 C-4.81277706 7.83774012 -6.72443519 8.97053677 -10 10 C-10 9.01 -10 8.02 -10 7 C-8.906875 6.5875 -7.81375 6.175 -6.6875 5.75 C-3.48984058 4.39714409 -1.79346574 3.05944156 0 0 Z " fill="#92F3FE" transform="translate(30,25)"/>
<path d="M0 0 C3.9492568 0.55105909 7.34920174 1.38935371 11 3 C11 3.66 11 4.32 11 5 C6.12637153 4.54663921 3.60957611 3.2910841 0 0 Z " fill="#20388C" transform="translate(7,67)"/>
<path d="M0 0 C0.66 0.99 1.32 1.98 2 3 C0.875 5.9375 0.875 5.9375 -1 9 C-4.1875 9.875 -4.1875 9.875 -7 10 C-6.21625 9.46375 -5.4325 8.9275 -4.625 8.375 C-1.66573701 5.69757158 -0.95391744 3.81566975 0 0 Z " fill="#2886E9" transform="translate(50,56)"/>
<path d="M0 0 C0.33 0.99 0.66 1.98 1 3 C-1.64 3.33 -4.28 3.66 -7 4 C-5 1 -5 1 -2.375 0.3125 C-1.59125 0.209375 -0.8075 0.10625 0 0 Z " fill="#39A1E5" transform="translate(91,42)"/>
<path d="M0 0 C0.3403125 0.9590625 0.3403125 0.9590625 0.6875 1.9375 C1.85250896 4.27193661 1.85250896 4.27193661 4.625 4.75 C5.40875 4.8325 6.1925 4.915 7 5 C7 5.33 7 5.66 7 6 C4.36 6 1.72 6 -1 6 C-0.67 4.02 -0.34 2.04 0 0 Z " fill="#37AFF9" transform="translate(25,57)"/>
<path d="M0 0 C1.98 0.99 1.98 0.99 4 2 C3.67 2.66 3.34 3.32 3 4 C2.01 2.68 1.02 1.36 0 0 Z " fill="#85E4FE" transform="translate(85,32)"/>
<path d="M0 0 C1.98 0 3.96 0 6 0 C6 0.33 6 0.66 6 1 C4.02 1 2.04 1 0 1 C0 0.67 0 0.34 0 0 Z " fill="#2B2F8B" transform="translate(59,84)"/>
<path d="M0 0 C1.65 0 3.3 0 5 0 C5 0.33 5 0.66 5 1 C3.35 1 1.7 1 0 1 C0 0.67 0 0.34 0 0 Z " fill="#C2FCFE" transform="translate(46,13)"/>
<path d="M0 0 C4 1 4 1 4 1 Z " fill="#22247E" transform="translate(40,87)"/>
<path d="M0 0 C4 1 4 1 4 1 Z " fill="#1F1F7A" transform="translate(32,87)"/>
<path d="M0 0 C4 1 4 1 4 1 Z " fill="#3B3E87" transform="translate(52,82)"/>
<path d="M0 0 C4 1 4 1 4 1 Z " fill="#363B75" transform="translate(14,74)"/>
<path d="M0 0 C1 4 1 4 1 4 Z " fill="#3A84CD" transform="translate(93,53)"/>
<path d="M0 0 C1 4 1 4 1 4 Z " fill="#74D9FB" transform="translate(0,50)"/>
<path d="M0 0 C1 4 1 4 1 4 Z " fill="#288ED3" transform="translate(93,43)"/>
<path d="M0 0 C3 1 3 1 3 1 Z " fill="#2D3483" transform="translate(56,83)"/>
<path d="M0 0 C3 1 3 1 3 1 Z " fill="#35468C" transform="translate(74,75)"/>
<path d="M0 0 C3 1 3 1 3 1 Z " fill="#213E7B" transform="translate(11,73)"/>
<path d="" fill="#4679C5" transform="translate(0,0)"/>
<path d="M0 0 C3 1 3 1 3 1 Z " fill="#B8F6FE" transform="translate(72,25)"/>
<path d="M0 0 C2 1 2 1 2 1 Z " fill="#30317F" transform="translate(45,86)"/>
<path d="M0 0 C2 1 2 1 2 1 Z " fill="#323A87" transform="translate(30,86)"/>
<path d="M0 0 C2 1 2 1 2 1 Z " fill="#333595" transform="translate(47,85)"/>
<path d="M0 0 C2 1 2 1 2 1 Z " fill="#3D3C8F" transform="translate(49,84)"/>
<path d="M0 0 C2 1 2 1 2 1 Z " fill="#353785" transform="translate(26,84)"/>
<path d="M0 0 C2 1 2 1 2 1 Z " fill="#30349E" transform="translate(65,83)"/>
<path d="" fill="#1B1FC6" transform="translate(0,0)"/>
<path d="" fill="#424DB3" transform="translate(0,0)"/>
<path d="M0 0 C2 1 2 1 2 1 Z " fill="#414796" transform="translate(77,74)"/>
<path d="M0 0 C2 1 2 1 2 1 Z " fill="#3C488C" transform="translate(79,73)"/>
<path d="M0 0 C2 1 2 1 2 1 Z " fill="#4B5594" transform="translate(81,72)"/>
<path d="M0 0 C2 1 2 1 2 1 Z " fill="#3C4279" transform="translate(8,71)"/>
<path d="" fill="#3C5199" transform="translate(0,0)"/>
<path d="" fill="#3177C9" transform="translate(0,0)"/>
<path d="" fill="#BBFBFE" transform="translate(0,0)"/>
<path d="" fill="#CDFCFE" transform="translate(0,0)"/>
<path d="" fill="#78C2E5" transform="translate(0,0)"/>
<path d="" fill="#9EC5F3" transform="translate(0,0)"/>
<path d="M0 0 C2 1 2 1 2 1 Z " fill="#E6FCFE" transform="translate(9,39)"/>
<path d="" fill="#D5FDFF" transform="translate(0,0)"/>
<path d="" fill="#CAFBFE" transform="translate(0,0)"/>
<path d="" fill="#B9FDFE" transform="translate(0,0)"/>
<path d="M0 0 C2 1 2 1 2 1 Z " fill="#BEEEFE" transform="translate(78,27)"/>
<path d="" fill="#CBFDFE" transform="translate(0,0)"/>
<path d="M0 0 C2 1 2 1 2 1 Z " fill="#C0DAFF" transform="translate(76,26)"/>
<path d="M0 0 C2 1 2 1 2 1 Z " fill="#C0EFFE" transform="translate(70,24)"/>
<path d="M0 0 C2 1 2 1 2 1 Z " fill="#91F6FF" transform="translate(67,23)"/>
<path d="M0 0 C2 1 2 1 2 1 Z " fill="#B7E0FE" transform="translate(63,20)"/>
<path d="M0 0 C2 1 2 1 2 1 Z " fill="#97F8FE" transform="translate(60,18)"/>
<path d="M0 0 C2 1 2 1 2 1 Z " fill="#E9FEFE" transform="translate(26,18)"/>
<path d="M0 0 C2 1 2 1 2 1 Z " fill="#CEF6FE" transform="translate(57,16)"/>
<path d="M0 0 C2 1 2 1 2 1 Z " fill="#D2FFFF" transform="translate(29,16)"/>
<path d="M0 0 C2 1 2 1 2 1 Z " fill="#C4F3FE" transform="translate(55,15)"/>
<path d="M0 0 C2 1 2 1 2 1 Z " fill="#D9FEFE" transform="translate(31,15)"/>
<path d="M0 0 C2 1 2 1 2 1 Z " fill="#BAFCFE" transform="translate(52,14)"/>
<path d="M0 0 C2 1 2 1 2 1 Z " fill="#CCFEFF" transform="translate(34,14)"/>
<path d="" fill="#4D4C8B" transform="translate(0,0)"/>
<path d="" fill="#32368D" transform="translate(0,0)"/>
<path d="" fill="#202799" transform="translate(0,0)"/>
<path d="" fill="#3A3F93" transform="translate(0,0)"/>
<path d="" fill="#3A3EA0" transform="translate(0,0)"/>
<path d="" fill="#4A4BA1" transform="translate(0,0)"/>
<path d="" fill="#383F96" transform="translate(0,0)"/>
<path d="" fill="#3A4CA3" transform="translate(0,0)"/>
<path d="" fill="#454D97" transform="translate(0,0)"/>
<path d="" fill="#4C4FA6" transform="translate(0,0)"/>
<path d="" fill="#3640A2" transform="translate(0,0)"/>
<path d="" fill="#434B8C" transform="translate(0,0)"/>
<path d="" fill="#37447D" transform="translate(0,0)"/>
<path d="" fill="#505989" transform="translate(0,0)"/>
<path d="" fill="#44539B" transform="translate(0,0)"/>
<path d="" fill="#30449F" transform="translate(0,0)"/>
<path d="" fill="#415299" transform="translate(0,0)"/>
<path d="" fill="#425690" transform="translate(0,0)"/>
<path d="" fill="#404E97" transform="translate(0,0)"/>
<path d="" fill="#4158AA" transform="translate(0,0)"/>
<path d="" fill="#4959A7" transform="translate(0,0)"/>
<path d="" fill="#49619D" transform="translate(0,0)"/>
<path d="" fill="#445EA0" transform="translate(0,0)"/>
<path d="" fill="#3557B6" transform="translate(0,0)"/>
<path d="" fill="#2B54C0" transform="translate(0,0)"/>
<path d="" fill="#546B9D" transform="translate(0,0)"/>
<path d="" fill="#425CA3" transform="translate(0,0)"/>
<path d="" fill="#D7FAFE" transform="translate(0,0)"/>
<path d="" fill="#DEFCFE" transform="translate(0,0)"/>
<path d="" fill="#DEFBFF" transform="translate(0,0)"/>
<path d="" fill="#CAFCFE" transform="translate(0,0)"/>
<path d="" fill="#E2FAFE" transform="translate(0,0)"/>
<path d="" fill="#DFFCFE" transform="translate(0,0)"/>
<path d="" fill="#D8FFFF" transform="translate(0,0)"/>
<path d="" fill="#B0E9FB" transform="translate(0,0)"/>
<path d="" fill="#E3FFFF" transform="translate(0,0)"/>
<path d="" fill="#B1EFFE" transform="translate(0,0)"/>
<path d="" fill="#A9F4FE" transform="translate(0,0)"/>
<path d="" fill="#B7EDFE" transform="translate(0,0)"/>
<path d="" fill="#BBFDFE" transform="translate(0,0)"/>
<path d="" fill="#C5EEFE" transform="translate(0,0)"/>
<path d="" fill="#AFF7FF" transform="translate(0,0)"/>
<path d="" fill="#D2ECFE" transform="translate(0,0)"/>
<path d="" fill="#DEFBFE" transform="translate(0,0)"/>
<path d="" fill="#E6FFFE" transform="translate(0,0)"/>
<path d="" fill="#E8FFFE" transform="translate(0,0)"/>
<path d="" fill="#B7F0FE" transform="translate(0,0)"/>
<path d="" fill="#CEFDFE" transform="translate(0,0)"/>
<path d="" fill="#C2E9FF" transform="translate(0,0)"/>
<path d="" fill="#D3FFFF" transform="translate(0,0)"/>
<path d="" fill="#E6FFFF" transform="translate(0,0)"/>
<path d="" fill="#B8DFFE" transform="translate(0,0)"/>
<path d="" fill="#E1FEFE" transform="translate(0,0)"/>
<path d="" fill="#C0FEFE" transform="translate(0,0)"/>
<path d="" fill="#CEFFFF" transform="translate(0,0)"/>
</svg>
