<?xml version="1.0" encoding="UTF-8"?>
<svg version="1.1" xmlns="http://www.w3.org/2000/svg" width="100" height="100">
<path d="M0 0 C3.13243356 1.86106588 5.57161423 4.25085898 8.203125 6.75 C11.15329812 9.034005 14.16399339 9.64465222 17.734375 10.546875 C24.84246918 12.78806698 29.53333358 17.08006292 33.26171875 23.34375 C33.92171875 23.34375 34.58171875 23.34375 35.26171875 23.34375 C34.80052663 38.47085163 34.80052663 38.47085163 30.26171875 44.34375 C22.62711261 50.93727348 12.8635931 50.78754386 3.26171875 51.34375 C2.76800781 52.47554687 2.27429688 53.60734375 1.765625 54.7734375 C1.11851727 56.25522042 0.47138034 57.7369906 -0.17578125 59.21875 C-0.50126953 59.96511719 -0.82675781 60.71148437 -1.16210938 61.48046875 C-1.47470703 62.19589844 -1.78730469 62.91132812 -2.109375 63.6484375 C-2.3973999 64.30827637 -2.6854248 64.96811523 -2.98217773 65.64794922 C-3.53760437 66.89366875 -4.12831143 68.12381037 -4.73828125 69.34375 C-6.05828125 69.34375 -7.37828125 69.34375 -8.73828125 69.34375 C-8.73828125 65.05375 -8.73828125 60.76375 -8.73828125 56.34375 C-9.85203125 56.364375 -10.96578125 56.385 -12.11328125 56.40625 C-15.73828125 56.34375 -15.73828125 56.34375 -17.73828125 55.34375 C-17.73828125 53.69375 -17.73828125 52.04375 -17.73828125 50.34375 C-24.99828125 50.67375 -32.25828125 51.00375 -39.73828125 51.34375 C-39.73828125 50.68375 -39.73828125 50.02375 -39.73828125 49.34375 C-40.31835938 49.06402344 -40.8984375 48.78429688 -41.49609375 48.49609375 C-46.98870655 45.67727761 -51.59539613 42.7989006 -54.73828125 37.34375 C-55.83523146 33.85701541 -56.16828266 30.7119363 -55.05078125 27.15625 C-47.91008742 17.29529185 -47.91008742 17.29529185 -42.23828125 15.59375 C-39.40363693 14.17642784 -38.96373004 13.3360872 -37.42578125 10.65625 C-34.19522833 5.07897467 -29.89684346 0.63647669 -23.875 -1.828125 C-15.81457464 -3.9561576 -7.59431669 -3.42416856 0 0 Z M-54.73828125 30.34375 C-53.73828125 33.34375 -53.73828125 33.34375 -53.73828125 33.34375 Z M-53.73828125 34.34375 C-52.73828125 37.34375 -52.73828125 37.34375 -52.73828125 37.34375 Z " fill="#E8F3F7" transform="translate(61.73828125,14.65625)"/>
<path d="M0 0 C2.5 1.0625 2.5 1.0625 5 3 C5.3125 6.6875 5.3125 6.6875 5 10 C6.65 10 8.3 10 10 10 C10 10.66 10 11.32 10 12 C17.02804699 12.85373239 23.92278069 13.12109311 31 13 C31 12.34 31 11.68 31 11 C31.60328125 10.97421875 32.2065625 10.9484375 32.828125 10.921875 C38.04453897 10.5965201 38.04453897 10.5965201 42.5 8.0625 C44.02911232 6.07877451 44.02911232 6.07877451 45 4 C45.99 4 46.98 4 48 4 C48.495 7.465 48.495 7.465 49 11 C50.32 11 51.64 11 53 11 C53 11.66 53 12.32 53 13 C58.20540698 12.03603575 62.59913433 11.12319499 67 8 C67 8.99 67 9.98 67 11 C73.69616177 13.23205392 81.12271685 11.8733058 88 11 C87.4938686 15.42864971 86.15110054 17.84889946 83 21 C77.55174715 23.80414547 72.62625734 24.65490568 66.5625 25.1875 C65.32209961 25.3102832 65.32209961 25.3102832 64.05664062 25.43554688 C62.03873118 25.63383855 60.01947588 25.81835402 58 26 C57.50628906 27.13179687 57.01257813 28.26359375 56.50390625 29.4296875 C55.85679852 30.91147042 55.20966159 32.3932406 54.5625 33.875 C54.23701172 34.62136719 53.91152344 35.36773437 53.57617188 36.13671875 C53.26357422 36.85214844 52.95097656 37.56757812 52.62890625 38.3046875 C52.34088135 38.96452637 52.05285645 39.62436523 51.75610352 40.30419922 C51.20067688 41.54991875 50.60996982 42.78006037 50 44 C48.68 44 47.36 44 46 44 C46 39.71 46 35.42 46 31 C44.88625 31.020625 43.7725 31.04125 42.625 31.0625 C39 31 39 31 37 30 C37 28.35 37 26.7 37 25 C29.74 25.33 22.48 25.66 15 26 C15 25.34 15 24.68 15 24 C14.41992188 23.72027344 13.83984375 23.44054687 13.2421875 23.15234375 C7.75473203 20.33617436 3.13276372 17.45707228 0 12 C-1.19298144 7.99338309 -1.49152993 3.97741316 0 0 Z M0 5 C1 8 1 8 1 8 Z M1 9 C2 12 2 12 2 12 Z " fill="#C6C8C4" transform="translate(7,40)"/>
<path d="M0 0 C4.80136189 -0.60017024 7.24280573 -0.20626259 11.1875 2.6875 C15.15974029 5.9515114 18.34748936 9.04246809 20 14 C19.91538508 15.73324119 19.76395645 17.46392812 19.5625 19.1875 C19.46066406 20.08855469 19.35882813 20.98960938 19.25390625 21.91796875 C19.17011719 22.60503906 19.08632812 23.29210937 19 24 C5.9724908 27.04609818 5.9724908 27.04609818 0 26 C-2.5625 24 -2.5625 24 -4 22 C-5.03125 22.66 -6.0625 23.32 -7.125 24 C-10.53576826 25.97282726 -13.0201643 26.38827665 -17 26 C-17 25.34 -17 24.68 -17 24 C-18.32 24 -19.64 24 -21 24 C-21.33 22.35 -21.66 20.7 -22 19 C-18.7 19.99 -15.4 20.98 -12 22 C-12 22.66 -12 23.32 -12 24 C-11.36191406 23.4946875 -10.72382812 22.989375 -10.06640625 22.46875 C-9.24011719 21.8190625 -8.41382812 21.169375 -7.5625 20.5 C-6.73878906 19.8503125 -5.91507813 19.200625 -5.06640625 18.53125 C-3 17 -3 17 -2 17 C-1.90912109 15.53626953 -1.90912109 15.53626953 -1.81640625 14.04296875 C-1.73261719 12.77066406 -1.64882812 11.49835937 -1.5625 10.1875 C-1.48128906 8.92292969 -1.40007812 7.65835938 -1.31640625 6.35546875 C-1 3 -1 3 0 0 Z " fill="#E5F4F8" transform="translate(77,27)"/>
<path d="M0 0 C0.33 0.99 0.66 1.98 1 3 C2.32 3 3.64 3 5 3 C5 3.66 5 4.32 5 5 C10.20540698 4.03603575 14.59913433 3.12319499 19 0 C19 0.99 19 1.98 19 3 C25.69616177 5.23205392 33.12271685 3.8733058 40 3 C39.4938686 7.42864971 38.15110054 9.84889946 35 13 C28.75873774 16.17736988 23.25819533 17.15496198 16.3125 17.25 C15.17425781 17.27578125 14.03601563 17.3015625 12.86328125 17.328125 C11.91839844 17.21984375 10.97351563 17.1115625 10 17 C9.34 16.01 8.68 15.02 8 14 C5.67843403 13.59270772 3.3431213 13.25561323 1 13 C0 12 0 12 -0.09765625 9.27734375 C-0.08605469 8.17519531 -0.07445312 7.07304688 -0.0625 5.9375 C-0.05347656 4.83277344 -0.04445312 3.72804687 -0.03515625 2.58984375 C-0.02355469 1.73519531 -0.01195312 0.88054688 0 0 Z " fill="#B5C2C4" transform="translate(55,48)"/>
<path d="M0 0 C0.99 0 1.98 0 3 0 C3.33 5.28 3.66 10.56 4 16 C6.31 16.33 8.62 16.66 11 17 C11.66 17.66 12.32 18.32 13 19 C12.70166149 24.15590135 10.66715535 28.31855579 8.4375 32.875 C8.10814453 33.56335938 7.77878906 34.25171875 7.43945312 34.9609375 C6.63304639 36.6438733 5.81745506 38.32240293 5 40 C3.68 40 2.36 40 1 40 C1 35.71 1 31.42 1 27 C-0.11375 27.020625 -1.2275 27.04125 -2.375 27.0625 C-6 27 -6 27 -8 26 C-7.54046373 20.71533287 -6.10579007 16.45885082 -4.0546875 11.578125 C-2.5025188 7.78393484 -1.24471823 3.903889 0 0 Z " fill="#FECF18" transform="translate(52,44)"/>
<path d="M0 0 C-0.63261683 3.69026484 -1.57090359 6.42725897 -3 10 C-10.59 10.33 -18.18 10.66 -26 11 C-26 10.34 -26 9.68 -26 9 C-26.95712891 8.49339844 -26.95712891 8.49339844 -27.93359375 7.9765625 C-28.75988281 7.53054687 -29.58617187 7.08453125 -30.4375 6.625 C-31.26121094 6.18414062 -32.08492187 5.74328125 -32.93359375 5.2890625 C-35 4 -35 4 -36 2 C-35.41734375 2.0721875 -34.8346875 2.144375 -34.234375 2.21875 C-23.81316377 3.39850976 -14.56079596 3.53691854 -4.3984375 0.65625 C-2 0 -2 0 0 0 Z " fill="#7B7663" transform="translate(48,55)"/>
<path d="M0 0 C0.33 0 0.66 0 1 0 C1.33 4.29 1.66 8.58 2 13 C4.97 13.495 4.97 13.495 8 14 C8.33 12.68 8.66 11.36 9 10 C9.86625 9.87625 9.86625 9.87625 10.75 9.75 C13.60798931 8.7973369 14.92954588 7.13946926 17 5 C17.66 5 18.32 5 19 5 C19.33 4.34 19.66 3.68 20 3 C20 6.3 20 9.6 20 13 C6.69703481 15.99785131 6.69703481 15.99785131 1 15 C-1.5625 13 -1.5625 13 -3 11 C-4.03125 11.66 -5.0625 12.32 -6.125 13 C-9.53576826 14.97282726 -12.0201643 15.38827665 -16 15 C-16 14.34 -16 13.68 -16 13 C-17.32 13 -18.64 13 -20 13 C-20.33 11.35 -20.66 9.7 -21 8 C-17.7 8.99 -14.4 9.98 -11 11 C-11 11.66 -11 12.32 -11 13 C-10.36191406 12.4946875 -9.72382812 11.989375 -9.06640625 11.46875 C-8.24011719 10.8190625 -7.41382812 10.169375 -6.5625 9.5 C-5.73878906 8.8503125 -4.91507813 8.200625 -4.06640625 7.53125 C-2 6 -2 6 -1 6 C-0.67 4.02 -0.34 2.04 0 0 Z " fill="#C2D0D7" transform="translate(76,38)"/>
<path d="M0 0 C10.89 0 21.78 0 33 0 C33.495 0.99 33.495 0.99 34 2 C27.61237995 4.88069139 22.39699 6.15306285 15.3125 6.25 C14.17425781 6.27578125 13.03601563 6.3015625 11.86328125 6.328125 C10.44595703 6.16570312 10.44595703 6.16570312 9 6 C8.34 5.01 7.68 4.02 7 3 C3.43230448 2.26393501 3.43230448 2.26393501 0 2 C0 1.34 0 0.68 0 0 Z " fill="#6D6B5A" transform="translate(56,59)"/>
<path d="M0 0 C0.99 0 1.98 0 3 0 C3.33 5.28 3.66 10.56 4 16 C6.31 16.33 8.62 16.66 11 17 C11.33 17.99 11.66 18.98 12 20 C11.10796875 20.06058594 10.2159375 20.12117188 9.296875 20.18359375 C7.54117188 20.30927734 7.54117188 20.30927734 5.75 20.4375 C4.58984375 20.51871094 3.4296875 20.59992188 2.234375 20.68359375 C-0.30977376 20.93247787 -2.55953248 21.28114942 -5 22 C-4.86722656 21.45472656 -4.73445313 20.90945312 -4.59765625 20.34765625 C-3.47947278 15.57293123 -2.70023258 10.93569218 -2.34375 6.04296875 C-1.95563767 3.73634661 -1.13345296 2.0338168 0 0 Z " fill="#F8D850" transform="translate(52,44)"/>
<path d="M0 0 C0.33 0.99 0.66 1.98 1 3 C6.44693314 3.09688221 11.63904667 3.12862175 17 2 C17 2.66 17 3.32 17 4 C23.93 4 30.86 4 38 4 C37.34 5.32 36.68 6.64 36 8 C24.12 8 12.24 8 0 8 C0 5.36 0 2.72 0 0 Z " fill="#959485" transform="translate(55,52)"/>
<path d="M0 0 C-3.73572939 4.82029598 -3.73572939 4.82029598 -7.3359375 5.33203125 C-9.5758033 5.31436669 -11.77120799 5.21850902 -14 5 C-14 5.66 -14 6.32 -14 7 C-16.3396669 8.16983345 -17.83391527 8.1661241 -20.4375 8.1875 C-21.61119141 8.20876953 -21.61119141 8.20876953 -22.80859375 8.23046875 C-25 8 -25 8 -28 6 C-25.46125763 4.91196756 -23.16791593 4.02866857 -20.4375 3.5625 C-17.91211813 3.15479278 -17.91211813 3.15479278 -15.9375 1.4375 C-14 0 -14 0 -10 0 C-8.2365625 -0.2784375 -8.2365625 -0.2784375 -6.4375 -0.5625 C-3 -1 -3 -1 0 0 Z " fill="#D6D6D0" transform="translate(52,46)"/>
<path d="M0 0 C1.65 0 3.3 0 5 0 C5 0.99 5 1.98 5 3 C5.9075 2.95875 6.815 2.9175 7.75 2.875 C11 3 11 3 12.8828125 3.9921875 C19.47972303 7.13241428 29.24424116 5.00485649 36 3 C38.99542296 1.54337066 38.99542296 1.54337066 41 0 C40.8125 1.875 40.8125 1.875 40 4 C30.01811522 9.7959331 16.01260674 8.84745831 5.15625 6.73046875 C2.676667 5.89046509 1.00471624 4.66300324 -1 3 C-0.67 2.01 -0.34 1.02 0 0 Z " fill="#A9A89D" transform="translate(9,51)"/>
<path d="M0 0 C1.44249562 4.32748687 -0.55496896 7.13415057 -2.375 11.0625 C-2.705 11.79533203 -3.035 12.52816406 -3.375 13.28320312 C-4.54576583 15.87459336 -5.72820337 18.45640674 -7 21 C-8.32 21 -9.64 21 -11 21 C-11 16.71 -11 12.42 -11 8 C-13.31 8 -15.62 8 -18 8 C-18 7.34 -18 6.68 -18 6 C-14.04 6 -10.08 6 -6 6 C-6.33 8.97 -6.66 11.94 -7 15 C-3.88083119 10.32124679 -1.99793084 5.22301716 0 0 Z " fill="#E8941F" transform="translate(64,63)"/>
<path d="M0 0 C0.48474869 4.94443665 0.73685155 7.97659507 -2.25 12.125 C-5 14 -5 14 -7.3125 13.8125 C-7.869375 13.544375 -8.42625 13.27625 -9 13 C-9.9375 9.875 -9.9375 9.875 -10 6 C-7.27956894 2.46727121 -4.53107047 0 0 0 Z " fill="#459DDE" transform="translate(74,76)"/>
<path d="M0 0 C0.05395478 1.62463842 0.09277195 3.24978541 0.125 4.875 C0.14820313 5.77992187 0.17140625 6.68484375 0.1953125 7.6171875 C0 10 0 10 -2 12 C-4.90718056 12.37271546 -6.41082793 12.39278138 -8.875 10.75 C-10 9 -10 9 -10.0625 7.125 C-7.99244161 2.98488322 -4.6681002 0 0 0 Z " fill="#398BD8" transform="translate(39,78)"/>
<path d="M0 0 C-0.33 0.99 -0.66 1.98 -1 3 C-5.31035482 4.34256953 -8.47781648 5 -13 5 C-13 5.66 -13 6.32 -13 7 C-14.72880982 7.05449838 -16.45812712 7.09301688 -18.1875 7.125 C-19.15042969 7.14820313 -20.11335938 7.17140625 -21.10546875 7.1953125 C-24.16273946 6.98901893 -26.22026233 6.24356685 -29 5 C-31.32748694 4.31320058 -33.65986656 3.64238957 -36 3 C-36 2.67 -36 2.34 -36 2 C-35.41734375 2.0721875 -34.8346875 2.144375 -34.234375 2.21875 C-23.81316377 3.39850976 -14.56079596 3.53691854 -4.3984375 0.65625 C-2 0 -2 0 0 0 Z " fill="#A09782" transform="translate(48,55)"/>
<path d="M0 0 C10.89 0 21.78 0 33 0 C33.495 0.99 33.495 0.99 34 2 C30.59053298 2.76756836 27.43773908 3.12818327 23.9453125 3.1328125 C23.00042969 3.13410156 22.05554688 3.13539062 21.08203125 3.13671875 C20.10621094 3.13285156 19.13039063 3.12898438 18.125 3.125 C16.67287109 3.13080078 16.67287109 3.13080078 15.19140625 3.13671875 C10.0191183 3.12968162 5.09617356 2.89431458 0 2 C0 1.34 0 0.68 0 0 Z " fill="#827E6F" transform="translate(56,59)"/>
<path d="M0 0 C0.66 0 1.32 0 2 0 C0.8443009 3.46709731 0.03135763 4.10873118 -3 6 C-9.59481885 8.19827295 -17.1094245 8.7796325 -24 8 C-24.99 7.34 -25.98 6.68 -27 6 C-26.02160156 6.01740234 -26.02160156 6.01740234 -25.0234375 6.03515625 C-20.2238086 6.08470994 -15.72215315 5.99413751 -11 5 C-10.67 4.01 -10.34 3.02 -10 2 C-9.04287109 1.90912109 -9.04287109 1.90912109 -8.06640625 1.81640625 C-7.24011719 1.73261719 -6.41382812 1.64882813 -5.5625 1.5625 C-4.73878906 1.48128906 -3.91507813 1.40007813 -3.06640625 1.31640625 C-1.01337975 1.21069185 -1.01337975 1.21069185 0 0 Z " fill="#C0BEB4" transform="translate(48,49)"/>
<path d="M0 0 C0.33 0.99 0.66 1.98 1 3 C6.44693314 3.09688221 11.63904667 3.12862175 17 2 C17 2.66 17 3.32 17 4 C23.93 4 30.86 4 38 4 C38 4.66 38 5.32 38 6 C19.685 5.505 19.685 5.505 1 5 C0.67 3.35 0.34 1.7 0 0 Z " fill="#A5A79A" transform="translate(55,52)"/>
<path d="M0 0 C0.82757813 0.14308594 1.65515625 0.28617188 2.5078125 0.43359375 C6.67561063 1.10957891 10.66368855 1.1088958 14.875 1.0625 C16.050625 1.05573242 16.050625 1.05573242 17.25 1.04882812 C19.16670014 1.03714093 21.08336048 1.01920908 23 1 C23.33 1.99 23.66 2.98 24 4 C16.74 4 9.48 4 2 4 C2 3.34 2 2.68 2 2 C1.01 1.67 0.02 1.34 -1 1 C-0.67 0.67 -0.34 0.34 0 0 Z " fill="#AAB4B3" transform="translate(70,52)"/>
<path d="M0 0 C0.99 0 1.98 0 3 0 C3.37851209 5.93002267 2.10575375 10.47239641 0 16 C-0.66 16 -1.32 16 -2 16 C-2.05423638 14.08364783 -2.09289963 12.16685075 -2.125 10.25 C-2.14820313 9.18265625 -2.17140625 8.1153125 -2.1953125 7.015625 C-2.00487687 4.07529894 -1.52670104 2.47638122 0 0 Z " fill="#FDDE4E" transform="translate(52,44)"/>
<path d="M0 0 C-2 3 -2 3 -4.35546875 3.4765625 C-5.75732422 3.55003906 -5.75732422 3.55003906 -7.1875 3.625 C-11.51235943 3.90383962 -15.71940108 4.33412906 -20 5 C-18.35 3.35 -16.7 1.7 -15 0 C-14.34 0.33 -13.68 0.66 -13 1 C-10.43613293 0.57781949 -7.93885378 -0.02913608 -5.41015625 -0.625 C-3 -1 -3 -1 0 0 Z " fill="#E2E2DD" transform="translate(52,46)"/>
<path d="M0 0 C0.66 0.33 1.32 0.66 2 1 C-0.07909954 5.84419638 -2.13315891 10.55639631 -5 15 C-6.36124019 11.9062723 -5.91936253 10.77421508 -4.75 7.5 C-3.34394455 4.68788911 -2.00925181 2.39196645 0 0 Z " fill="#FBB913" transform="translate(62,64)"/>
<path d="M0 0 C0.33 0.99 0.66 1.98 1 3 C0.34 3 -0.32 3 -1 3 C-1 3.66 -1 4.32 -1 5 C-2.75 6.5078125 -2.75 6.5078125 -5 8.125 C-5.7425 8.66382813 -6.485 9.20265625 -7.25 9.7578125 C-7.8275 10.16773438 -8.405 10.57765625 -9 11 C-9 7 -9 7 -7.5390625 5.33203125 C-6.90742187 4.83058594 -6.27578125 4.32914063 -5.625 3.8125 C-4.99851562 3.30332031 -4.37203125 2.79414062 -3.7265625 2.26953125 C-2 1 -2 1 0 0 Z " fill="#DBE7F1" transform="translate(96,38)"/>
<path d="M0 0 C0.33 0.99 0.66 1.98 1 3 C2.32 3 3.64 3 5 3 C5 3.66 5 4.32 5 5 C6.98 5 8.96 5 11 5 C11 5.99 11 6.98 11 8 C7.7 7.67 4.4 7.34 1 7 C0.67 4.69 0.34 2.38 0 0 Z " fill="#C7C0AB" transform="translate(55,48)"/>
<path d="M0 0 C3.3 0.99 6.6 1.98 10 3 C9.67 3.99 9.34 4.98 9 6 C9.66 6.33 10.32 6.66 11 7 C9.02 7 7.04 7 5 7 C5 6.34 5 5.68 5 5 C3.68 5 2.36 5 1 5 C0.67 3.35 0.34 1.7 0 0 Z " fill="#D9D6CB" transform="translate(55,46)"/>
<path d="M0 0 C-0.33 1.98 -0.66 3.96 -1 6 C-3.64 6 -6.28 6 -9 6 C-4.38461538 0 -4.38461538 0 0 0 Z " fill="#56BAEC" transform="translate(38,79)"/>
<path d="M0 0 C1.18771723 3.42943519 0.80226223 5.37784675 -0.4375 8.75 C-0.72496094 9.54921875 -1.01242188 10.3484375 -1.30859375 11.171875 C-1.53675781 11.77515625 -1.76492187 12.3784375 -2 13 C-1.34 13.33 -0.68 13.66 0 14 C-0.99 14.33 -1.98 14.66 -3 15 C-3 15.66 -3 16.32 -3 17 C-3.66 17 -4.32 17 -5 17 C-4.46246904 10.81839396 -2.45417612 5.673142 0 0 Z " fill="#EABA2C" transform="translate(49,53)"/>
<path d="M0 0 C0.66 0 1.32 0 2 0 C1.67 1.98 1.34 3.96 1 6 C-2.63 5.67 -6.26 5.34 -10 5 C-10 4.34 -10 3.68 -10 3 C-9.04287109 2.80083984 -9.04287109 2.80083984 -8.06640625 2.59765625 C-7.24011719 2.42105469 -6.41382813 2.24445312 -5.5625 2.0625 C-4.73878906 1.88847656 -3.91507813 1.71445312 -3.06640625 1.53515625 C-1.02338796 1.19247006 -1.02338796 1.19247006 0 0 Z " fill="#87816C" transform="translate(45,57)"/>
<path d="M0 0 C2.5 1.1875 2.5 1.1875 5 3 C5.3125 5.6875 5.3125 5.6875 5 8 C4.360625 8.103125 3.72125 8.20625 3.0625 8.3125 C2.0415625 8.6528125 2.0415625 8.6528125 1 9 C0.67 9.99 0.34 10.98 0 12 C-1.28571429 3.42857143 -1.28571429 3.42857143 0 0 Z M0 5 C1 8 1 8 1 8 Z " fill="#C6D1D3" transform="translate(7,40)"/>
<path d="M0 0 C0.75 1.75 0.75 1.75 1 4 C-1.25626369 6.84122094 -3.60101156 8.72537933 -7 10 C-8.32 10 -9.64 10 -11 10 C-10.67 9.01 -10.34 8.02 -10 7 C-9.401875 6.855625 -8.80375 6.71125 -8.1875 6.5625 C-5.27267423 5.81297337 -4.05958248 4.12823523 -2 2 C-1.34 2 -0.68 2 0 2 C0 1.34 0 0.68 0 0 Z " fill="#CCDAE5" transform="translate(95,41)"/>
<path d="M0 0 C1.60495567 0.11442461 3.20898119 0.24194694 4.8125 0.375 C5.70582031 0.44460937 6.59914063 0.51421875 7.51953125 0.5859375 C10 1 10 1 13 3 C15.50896686 3.45601261 15.50896686 3.45601261 18.1875 3.625 C19.08855469 3.69976562 19.98960938 3.77453125 20.91796875 3.8515625 C21.60503906 3.90054688 22.29210937 3.94953125 23 4 C23 4.33 23 4.66 23 5 C21.27119018 5.05449838 19.54187288 5.09301688 17.8125 5.125 C16.84957031 5.14820313 15.88664062 5.17140625 14.89453125 5.1953125 C11.83726054 4.98901893 9.77973767 4.24356685 7 3 C4.67251306 2.31320058 2.34013344 1.64238957 0 1 C0 0.67 0 0.34 0 0 Z " fill="#908B7E" transform="translate(12,57)"/>
<path d="M0 0 C1.65 0 3.3 0 5 0 C5 0.99 5 1.98 5 3 C6.36125 2.9071875 6.36125 2.9071875 7.75 2.8125 C11.28982642 3.01672076 12.44931155 3.64551835 15 6 C12.66666667 5.66666667 10.33333333 5.33333333 8 5 C6.1128125 4.7525 6.1128125 4.7525 4.1875 4.5 C1 4 1 4 -1 3 C-0.67 2.01 -0.34 1.02 0 0 Z " fill="#ABB1B0" transform="translate(9,51)"/>
<path d="M0 0 C0.33 0.99 0.66 1.98 1 3 C1.99 3 2.98 3 4 3 C4.33 4.32 4.66 5.64 5 7 C2.35261084 8.4606285 1.10551666 9 -2 9 C-1.34 6.03 -0.68 3.06 0 0 Z " fill="#FEE544" transform="translate(49,57)"/>
<path d="M0 0 C0.66 0 1.32 0 2 0 C2 0.66 2 1.32 2 2 C3.65 2 5.3 2 7 2 C7 2.66 7 3.32 7 4 C7.99 4 8.98 4 10 4 C10 4.66 10 5.32 10 6 C8.02 6 6.04 6 4 6 C4 5.01 4 4.02 4 3 C2.35 3 0.7 3 -1 3 C-0.67 2.01 -0.34 1.02 0 0 Z " fill="#B7C2C4" transform="translate(10,48)"/>
<path d="M0 0 C2.31 0 4.62 0 7 0 C6 3 6 3 3 5 C0.8125 4.625 0.8125 4.625 -1 4 C-0.67 2.68 -0.34 1.36 0 0 Z " fill="#334FC7" transform="translate(66,85)"/>
<path d="M0 0 C0.33 0.66 0.66 1.32 1 2 C0 4 0 4 -2 5.0625 C-5.96122524 6.30038289 -9.87669204 6.65863681 -14 7 C-14 6.34 -14 5.68 -14 5 C-12.98679688 4.83564453 -12.98679688 4.83564453 -11.953125 4.66796875 C-10.61507812 4.43013672 -10.61507812 4.43013672 -9.25 4.1875 C-8.36828125 4.03667969 -7.4865625 3.88585938 -6.578125 3.73046875 C-3.8089089 2.94585752 -2.1740599 1.85404641 0 0 Z " fill="#B5AC92" transform="translate(49,51)"/>
<path d="M0 0 C0.66 0 1.32 0 2 0 C1 3 1 3 -1 4 C-2.54023996 4.06950541 -4.08334988 4.08452357 -5.625 4.0625 C-6.85089844 4.04896484 -6.85089844 4.04896484 -8.1015625 4.03515625 C-9.04128906 4.01775391 -9.04128906 4.01775391 -10 4 C-10 3.34 -10 2.68 -10 2 C-9.04287109 1.90912109 -9.04287109 1.90912109 -8.06640625 1.81640625 C-6.82697266 1.69072266 -6.82697266 1.69072266 -5.5625 1.5625 C-4.73878906 1.48128906 -3.91507813 1.40007813 -3.06640625 1.31640625 C-1.01337975 1.21069185 -1.01337975 1.21069185 0 0 Z " fill="#CDC9BB" transform="translate(48,49)"/>
<path d="M0 0 C0.99 0 1.98 0 3 0 C2.38722388 2.96175123 1.74627478 4.38058783 0 7 C-0.66 7 -1.32 7 -2 7 C-1.125 2.25 -1.125 2.25 0 0 Z " fill="#F8DD79" transform="translate(52,44)"/>
<path d="M0 0 C2.64 0 5.28 0 8 0 C7.67 0.99 7.34 1.98 7 3 C4.625 3.1875 4.625 3.1875 2 3 C1.34 2.01 0.68 1.02 0 0 Z " fill="#2C4FCC" transform="translate(30,87)"/>
<path d="M0 0 C2.64 0 5.28 0 8 0 C7.67 0.66 7.34 1.32 7 2 C4.35139573 2.59355614 1.70802678 2.74209269 -1 3 C-0.67 2.01 -0.34 1.02 0 0 Z " fill="#C0BAA7" transform="translate(38,53)"/>
<path d="M0 0 C0.33 0 0.66 0 1 0 C1 2.97 1 5.94 1 9 C0.01 9 -0.98 9 -2 9 C-1.41196203 5.97580475 -0.77321882 2.98241547 0 0 Z " fill="#FBD13B" transform="translate(54,51)"/>
<path d="M0 0 C2.875 -0.125 2.875 -0.125 6 0 C6.66 0.66 7.32 1.32 8 2 C7.071875 2.185625 7.071875 2.185625 6.125 2.375 C3.80879168 2.87197356 3.80879168 2.87197356 2 5 C2 4.01 2 3.02 2 2 C1.34 2 0.68 2 0 2 C0 1.34 0 0.68 0 0 Z " fill="#F1FEFE" transform="translate(74,25)"/>
<path d="M0 0 C2.62901288 1.52206009 4.84365964 2.84365964 7 5 C6.67 5.99 6.34 6.98 6 8 C4.99403703 7.0479279 3.99538437 6.08812654 3 5.125 C2.443125 4.59132813 1.88625 4.05765625 1.3125 3.5078125 C0 2 0 2 0 0 Z " fill="#DEEEF9" transform="translate(65,18)"/>
<path d="M0 0 C4.62 0 9.24 0 14 0 C13.67 1.32 13.34 2.64 13 4 C12.67 3.34 12.34 2.68 12 2 C9.1840151 1.53101037 9.1840151 1.53101037 5.9375 1.375 C4.28041016 1.26285156 4.28041016 1.26285156 2.58984375 1.1484375 C1.73519531 1.09945312 0.88054688 1.05046875 0 1 C0 0.67 0 0.34 0 0 Z " fill="#877748" transform="translate(29,66)"/>
<path d="M0 0 C1.60080151 4.00200378 0.29279692 7.04556236 -1 11 C-2.1875 9.4375 -2.1875 9.4375 -3 7 C-1.625 3.25 -1.625 3.25 0 0 Z " fill="#F3CF34" transform="translate(49,53)"/>
<path d="M0 0 C1.98 0 3.96 0 6 0 C6 3.63 6 7.26 6 11 C5.67 11 5.34 11 5 11 C5 7.7 5 4.4 5 1 C3.35 1 1.7 1 0 1 C0 0.67 0 0.34 0 0 Z " fill="#E46A0F" transform="translate(46,72)"/>
<path d="M0 0 C4.29 0 8.58 0 13 0 C13 0.33 13 0.66 13 1 C8.71 1 4.42 1 0 1 C0 0.67 0 0.34 0 0 Z " fill="#E0F0F9" transform="translate(41,10)"/>
<path d="M0 0 C3.3 0 6.6 0 10 0 C10 0.33 10 0.66 10 1 C7.03 1 4.06 1 1 1 C0.67 1.66 0.34 2.32 0 3 C0 2.01 0 1.02 0 0 Z " fill="#837650" transform="translate(65,66)"/>
<path d="M0 0 C0.33 0 0.66 0 1 0 C1 3.3 1 6.6 1 10 C0.67 10 0.34 10 0 10 C0 6.7 0 3.4 0 0 Z " fill="#4B9AE1" transform="translate(40,78)"/>
<path d="M0 0 C0.33 0 0.66 0 1 0 C1 3.3 1 6.6 1 10 C0.67 10 0.34 10 0 10 C0 6.7 0 3.4 0 0 Z " fill="#CBD8E1" transform="translate(97,41)"/>
<path d="M0 0 C0.33 0 0.66 0 1 0 C1 2.97 1 5.94 1 9 C0.67 9 0.34 9 0 9 C0 6.03 0 3.06 0 0 Z " fill="#3E92DC" transform="translate(75,76)"/>
<path d="M0 0 C1.65 0 3.3 0 5 0 C5 0.33 5 0.66 5 1 C3.35 1 1.7 1 0 1 C0 0.67 0 0.34 0 0 Z " fill="#2C3DCC" transform="translate(32,91)"/>
<path d="M0 0 C1.65 0 3.3 0 5 0 C5 0.33 5 0.66 5 1 C3.35 1 1.7 1 0 1 C0 0.67 0 0.34 0 0 Z " fill="#646255" transform="translate(78,65)"/>
<path d="M0 0 C4 1 4 1 4 1 Z " fill="#FBFDFE" transform="translate(75,23)"/>
<path d="M0 0 C3 1 3 1 3 1 Z " fill="#EF940A" transform="translate(54,85)"/>
<path d="" fill="#54A2DE" transform="translate(0,0)"/>
<path d="" fill="#5C8AAE" transform="translate(0,0)"/>
<path d="M0 0 C3 1 3 1 3 1 Z " fill="#5999CC" transform="translate(71,74)"/>
<path d="M0 0 C3 1 3 1 3 1 Z " fill="#7E7464" transform="translate(83,64)"/>
<path d="" fill="#A5AEC1" transform="translate(0,0)"/>
<path d="M0 0 C0.33 0.66 0.66 1.32 1 2 C0.34 1.67 -0.32 1.34 -1 1 C-0.67 0.67 -0.34 0.34 0 0 Z " fill="#EFF8FC" transform="translate(21,27)"/>
<path d="M0 0 C0.99 0.495 0.99 0.495 2 1 C1.01 1.495 1.01 1.495 0 2 C0 1.34 0 0.68 0 0 Z " fill="#E2E7FA" transform="translate(28,17)"/>
<path d="M0 0 C3 1 3 1 3 1 Z " fill="#E3F6FB" transform="translate(54,11)"/>
<path d="M0 0 C3 1 3 1 3 1 Z " fill="#D4E8ED" transform="translate(38,11)"/>
<path d="M0 0 C2 1 2 1 2 1 Z " fill="#1731CE" transform="translate(70,89)"/>
<path d="" fill="#2951DB" transform="translate(0,0)"/>
<path d="" fill="#F98907" transform="translate(0,0)"/>
<path d="" fill="#F7940C" transform="translate(0,0)"/>
<path d="" fill="#EB9314" transform="translate(0,0)"/>
<path d="M0 0 C2 1 2 1 2 1 Z " fill="#3897F7" transform="translate(33,78)"/>
<path d="" fill="#F4AF12" transform="translate(0,0)"/>
<path d="M0 0 C2 1 2 1 2 1 Z " fill="#4695F5" transform="translate(36,76)"/>
<path d="" fill="#F88C2A" transform="translate(0,0)"/>
<path d="" fill="#E4911A" transform="translate(0,0)"/>
<path d="M0 0 C2 1 2 1 2 1 Z " fill="#D38426" transform="translate(44,71)"/>
<path d="" fill="#DB971E" transform="translate(0,0)"/>
<path d="M0 0 C2 1 2 1 2 1 Z " fill="#7E7E70" transform="translate(20,64)"/>
<path d="M0 0 C2 1 2 1 2 1 Z " fill="#7F7064" transform="translate(86,63)"/>
<path d="M0 0 C2 1 2 1 2 1 Z " fill="#717B52" transform="translate(18,63)"/>
<path d="M0 0 C2 1 2 1 2 1 Z " fill="#8D6F4E" transform="translate(16,62)"/>
<path d="M0 0 C2 1 2 1 2 1 Z " fill="#815E57" transform="translate(14,61)"/>
<path d="" fill="#A2A8A6" transform="translate(0,0)"/>
<path d="" fill="#82807A" transform="translate(0,0)"/>
<path d="" fill="#B3B9BF" transform="translate(0,0)"/>
<path d="" fill="#F4F9FB" transform="translate(0,0)"/>
<path d="" fill="#F3FAFE" transform="translate(0,0)"/>
<path d="" fill="#F1FAFE" transform="translate(0,0)"/>
<path d="M0 0 C2 1 2 1 2 1 Z " fill="#E4F6FE" transform="translate(18,29)"/>
<path d="M0 0 C2 1 2 1 2 1 Z " fill="#F4FDFE" transform="translate(87,28)"/>
<path d="M0 0 C2 1 2 1 2 1 Z " fill="#DEFEFE" transform="translate(84,26)"/>
<path d="" fill="#DDE4E6" transform="translate(0,0)"/>
<path d="M0 0 C2 1 2 1 2 1 Z " fill="#F7FFFF" transform="translate(82,25)"/>
<path d="M0 0 C2 1 2 1 2 1 Z " fill="#F6FEFE" transform="translate(80,24)"/>
<path d="" fill="#CBD0D2" transform="translate(0,0)"/>
<path d="M0 0 C2 1 2 1 2 1 Z " fill="#E9F5FC" transform="translate(65,16)"/>
<path d="M0 0 C2 1 2 1 2 1 Z " fill="#D2D9FD" transform="translate(32,14)"/>
<path d="M0 0 C2 1 2 1 2 1 Z " fill="#E6F8FD" transform="translate(60,13)"/>
<path d="M0 0 C2 1 2 1 2 1 Z " fill="#F4F9FC" transform="translate(58,12)"/>
<path d="M0 0 C2 1 2 1 2 1 Z " fill="#E3FCFD" transform="translate(36,12)"/>
<path d="" fill="#3841B4" transform="translate(0,0)"/>
<path d="" fill="#0018B6" transform="translate(0,0)"/>
<path d="" fill="#0059CF" transform="translate(0,0)"/>
<path d="" fill="#0021E1" transform="translate(0,0)"/>
<path d="" fill="#3A55DF" transform="translate(0,0)"/>
<path d="" fill="#3D4CD2" transform="translate(0,0)"/>
<path d="" fill="#1935D3" transform="translate(0,0)"/>
<path d="" fill="#426AAC" transform="translate(0,0)"/>
<path d="" fill="#2B64E0" transform="translate(0,0)"/>
<path d="" fill="#4160BE" transform="translate(0,0)"/>
<path d="" fill="#F06615" transform="translate(0,0)"/>
<path d="" fill="#A5DBF6" transform="translate(0,0)"/>
<path d="" fill="#00C3F3" transform="translate(0,0)"/>
<path d="" fill="#009AE0" transform="translate(0,0)"/>
<path d="" fill="#00ABF7" transform="translate(0,0)"/>
<path d="" fill="#0012E2" transform="translate(0,0)"/>
<path d="" fill="#2FBEF2" transform="translate(0,0)"/>
<path d="" fill="#0062FF" transform="translate(0,0)"/>
<path d="" fill="#7AC0F0" transform="translate(0,0)"/>
<path d="" fill="#1C97D3" transform="translate(0,0)"/>
<path d="" fill="#3F8FC9" transform="translate(0,0)"/>
<path d="" fill="#41C4EE" transform="translate(0,0)"/>
<path d="" fill="#30A7DC" transform="translate(0,0)"/>
<path d="" fill="#4AA6E3" transform="translate(0,0)"/>
<path d="" fill="#7D726F" transform="translate(0,0)"/>
<path d="" fill="#9E9F97" transform="translate(0,0)"/>
<path d="" fill="#969592" transform="translate(0,0)"/>
<path d="" fill="#8C8A82" transform="translate(0,0)"/>
<path d="" fill="#8A8A88" transform="translate(0,0)"/>
<path d="" fill="#94918A" transform="translate(0,0)"/>
<path d="" fill="#A6AAA7" transform="translate(0,0)"/>
<path d="" fill="#989890" transform="translate(0,0)"/>
<path d="" fill="#97958C" transform="translate(0,0)"/>
<path d="" fill="#F1F8FB" transform="translate(0,0)"/>
<path d="" fill="#F7FDFF" transform="translate(0,0)"/>
<path d="" fill="#F2F7FB" transform="translate(0,0)"/>
<path d="" fill="#F7FDFA" transform="translate(0,0)"/>
<path d="" fill="#FBFEFC" transform="translate(0,0)"/>
<path d="" fill="#F2F9FF" transform="translate(0,0)"/>
<path d="" fill="#F8F8FB" transform="translate(0,0)"/>
<path d="" fill="#F4FDFF" transform="translate(0,0)"/>
<path d="" fill="#EDF5FB" transform="translate(0,0)"/>
<path d="" fill="#F4FCFF" transform="translate(0,0)"/>
<path d="" fill="#FFFFFF" transform="translate(0,0)"/>
<path d="" fill="#EBFAFF" transform="translate(0,0)"/>
<path d="" fill="#FFFDFF" transform="translate(0,0)"/>
<path d="" fill="#F0FAFB" transform="translate(0,0)"/>
<path d="" fill="#F3FBFC" transform="translate(0,0)"/>
<path d="" fill="#D9E5FA" transform="translate(0,0)"/>
<path d="" fill="#F0FAFB" transform="translate(0,0)"/>
<path d="" fill="#D7E4FC" transform="translate(0,0)"/>
<path d="" fill="#F5FDFE" transform="translate(0,0)"/>
<path d="" fill="#EFFBFB" transform="translate(0,0)"/>
<path d="" fill="#FFFFFF" transform="translate(0,0)"/>
<path d="" fill="#E1EEFA" transform="translate(0,0)"/>
<path d="" fill="#D4E5FA" transform="translate(0,0)"/>
<path d="" fill="#FDFFFF" transform="translate(0,0)"/>
<path d="" fill="#E8F6FD" transform="translate(0,0)"/>
<path d="" fill="#D2DAE0" transform="translate(0,0)"/>
<path d="" fill="#E6F4FB" transform="translate(0,0)"/>
<path d="" fill="#E9EFF8" transform="translate(0,0)"/>
</svg>
