<?xml version="1.0" encoding="UTF-8"?>
<svg version="1.1" xmlns="http://www.w3.org/2000/svg" width="94" height="94">
<path d="M0 0 C1.175625 0.01353516 1.175625 0.01353516 2.375 0.02734375 C4.29180055 0.05071937 6.20844191 0.08658347 8.125 0.125 C8.125 0.785 8.125 1.445 8.125 2.125 C10.04387775 3.6106249 10.04387775 3.6106249 12.4375 5.0625 C16.88784336 7.86456804 16.88784336 7.86456804 18.59765625 9.7421875 C20.6793277 11.62687214 22.50913139 11.79321863 25.25 12.3125 C32.57236384 14.14794664 37.87919844 18.45477801 41.8125 24.8828125 C42.245625 25.62273438 42.67875 26.36265625 43.125 27.125 C43.455 27.125 43.785 27.125 44.125 27.125 C44.125 30.755 44.125 34.385 44.125 38.125 C43.465 38.125 42.805 38.125 42.125 38.125 C41.67125 39.0325 41.2175 39.94 40.75 40.875 C40.21375 41.9475 39.6775 43.02 39.125 44.125 C38.856875 44.888125 38.58875 45.65125 38.3125 46.4375 C37.125 48.125 37.125 48.125 34 48.875 C33.05125 48.9575 32.1025 49.04 31.125 49.125 C31.125 49.785 31.125 50.445 31.125 51.125 C30.35309326 51.10928955 29.58118652 51.0935791 28.78588867 51.07739258 C25.29483338 51.01510393 21.80389491 50.97602827 18.3125 50.9375 C17.09755859 50.91236328 15.88261719 50.88722656 14.63085938 50.86132812 C13.46748047 50.85166016 12.30410156 50.84199219 11.10546875 50.83203125 C10.03192139 50.8163208 8.95837402 50.80061035 7.85229492 50.78442383 C4.71609134 51.17606325 4.11065299 51.79028514 2.125 54.125 C-2.13530575 55.8934288 -3.96542343 56.48883063 -8.3125 54.75 C-9.158125 54.21375 -10.00375 53.6775 -10.875 53.125 C-10.875 52.135 -10.875 51.145 -10.875 50.125 C-11.69742188 50.17140625 -12.51984375 50.2178125 -13.3671875 50.265625 C-21.47048046 50.52762523 -29.25814943 50.3046892 -35.56640625 44.59375 C-39.80203588 39.67028308 -40.21792593 36.19577266 -40.16015625 29.890625 C-39.6661254 25.09920248 -37.38203789 22.40369881 -33.8125 19.375 C-33.173125 18.9625 -32.53375 18.55 -31.875 18.125 C-28.70833333 16.29166667 -28.70833333 16.29166667 -26.875 13.125 C-24.17683095 10.27264986 -21.34495649 7.5747946 -18.4375 4.9375 C-17.90253906 4.44894531 -17.36757813 3.96039063 -16.81640625 3.45703125 C-11.53544039 -0.16632762 -6.14372566 -0.13537023 0 0 Z M-1.875 51.125 C-0.875 53.125 -0.875 53.125 -0.875 53.125 Z " fill="#EEF5F8" transform="translate(47.875,10.875)"/>
<path d="M0 0 C2 2 2 2 2 6 C2.66 6 3.32 6 4 6 C4 6.99 4 7.98 4 9 C13.40556996 10.43459958 13.40556996 10.43459958 22 7 C27.763306 5.078898 35.18040592 5.33725884 41 7 C42.33333333 8.33333333 43.66666667 9.66666667 45 11 C47.36612547 11.91890424 47.36612547 11.91890424 50 11 C51.9659998 9.28506944 53.70979129 7.47508911 55.44921875 5.53125 C57 4 57 4 59 4 C58.67 5.98 58.34 7.96 58 10 C63.41854282 9.62196213 65.37632548 7.91748597 69 4 C69.99 3.67 70.98 3.34 72 3 C72 4.65 72 6.3 72 8 C73.98491642 7.73323796 73.98491642 7.73323796 76 7 C76.33 6.01 76.66 5.02 77 4 C77.99 4 78.98 4 80 4 C78.04054054 11.83783784 78.04054054 11.83783784 75 15 C74.01 15.33 73.02 15.66 72 16 C71.01 16.66 70.02 17.32 69 18 C69 18.33 69 18.66 69 19 C67.84213989 18.97643433 67.84213989 18.97643433 66.66088867 18.95239258 C63.16983338 18.89010393 59.67889491 18.85102827 56.1875 18.8125 C54.36508789 18.77479492 54.36508789 18.77479492 52.50585938 18.73632812 C51.34248047 18.72666016 50.17910156 18.71699219 48.98046875 18.70703125 C47.90692139 18.6913208 46.83337402 18.67561035 45.72729492 18.65942383 C42.59109134 19.05106325 41.98565299 19.66528514 40 22 C35.73969425 23.7684288 33.90957657 24.36383063 29.5625 22.625 C28.716875 22.08875 27.87125 21.5525 27 21 C27 20.01 27 19.02 27 18 C26.17757812 18.04640625 25.35515625 18.0928125 24.5078125 18.140625 C16.31856548 18.40540435 8.826404 18.06844679 2.30859375 12.57421875 C-0.3231935 9.6725046 -1.89365633 6.93471564 -2 3 C-1.34 2.01 -0.68 1.02 0 0 Z M36 19 C37 21 37 21 37 21 Z " fill="#B2C4C8" transform="translate(10,43)"/>
<path d="M0 0 C6.75 0.75 6.75 0.75 9 3 C9 3.33 9 3.66 9 4 C9.56807373 3.96970703 10.13614746 3.93941406 10.72143555 3.90820312 C21.48870979 3.34224916 32.21476214 2.81991254 43 3 C43 3.99 43 4.98 43 6 C41.02 6.33 39.04 6.66 37 7 C37 7.66 37 8.32 37 9 C36.22809326 8.98428955 35.45618652 8.9685791 34.66088867 8.95239258 C31.16983338 8.89010393 27.67889491 8.85102827 24.1875 8.8125 C22.97255859 8.78736328 21.75761719 8.76222656 20.50585938 8.73632812 C19.34248047 8.72666016 18.17910156 8.71699219 16.98046875 8.70703125 C15.90692139 8.6913208 14.83337402 8.67561035 13.72729492 8.65942383 C10.59109134 9.05106325 9.98565299 9.66528514 8 12 C3.73969425 13.7684288 1.90957657 14.36383063 -2.4375 12.625 C-3.7059375 11.820625 -3.7059375 11.820625 -5 11 C-5 9.68 -5 8.36 -5 7 C-3.35 7 -1.7 7 0 7 C0 6.34 0 5.68 0 5 C-1.32 5 -2.64 5 -4 5 C-3.67 3.68 -3.34 2.36 -3 1 C-2.34 1 -1.68 1 -1 1 C-0.67 1.33 -0.34 1.66 0 2 C0 1.34 0 0.68 0 0 Z M4 9 C5 11 5 11 5 11 Z " fill="#8BA09B" transform="translate(42,53)"/>
<path d="M0 0 C5.61 0 11.22 0 17 0 C17 0.33 17 0.66 17 1 C15.02 1.33 13.04 1.66 11 2 C11.65484375 2.37769531 12.3096875 2.75539063 12.984375 3.14453125 C15 5 15 5 15.390625 7.69921875 C15.32101563 9.17841797 15.32101563 9.17841797 15.25 10.6875 C15.21390625 11.68136719 15.1778125 12.67523438 15.140625 13.69921875 C15.07101563 14.83810547 15.07101563 14.83810547 15 16 C14.38253906 16.15082031 13.76507813 16.30164063 13.12890625 16.45703125 C10.99628031 16.97375279 10.99628031 16.97375279 8.9375 17.6875 C7 18 7 18 4 16 C3.01 15.67 2.02 15.34 1 15 C0.89175157 13.3973218 0.81429355 11.79254252 0.75 10.1875 C0.70359375 9.29417969 0.6571875 8.40085937 0.609375 7.48046875 C1 5 1 5 3.015625 3.17578125 C3.67046875 2.78777344 4.3253125 2.39976563 5 2 C3.35 1.67 1.7 1.34 0 1 C0 0.67 0 0.34 0 0 Z M5 5 C6 7 6 7 6 7 Z " fill="#4195D5" transform="translate(57,62)"/>
<path d="M0 0 C1.06863281 0.01804688 2.13726562 0.03609375 3.23828125 0.0546875 C4.04652344 0.07789063 4.85476562 0.10109375 5.6875 0.125 C5.6875 0.455 5.6875 0.785 5.6875 1.125 C4.0375 1.125 2.3875 1.125 0.6875 1.125 C1.0175 2.445 1.3475 3.765 1.6875 5.125 C1.0275 4.795 0.3675 4.465 -0.3125 4.125 C-0.3125 3.465 -0.3125 2.805 -0.3125 2.125 C-1.3025 2.62 -1.3025 2.62 -2.3125 3.125 C-2.6425 4.115 -2.9725 5.105 -3.3125 6.125 C-1.9925 6.125 -0.6725 6.125 0.6875 6.125 C0.6875 6.785 0.6875 7.445 0.6875 8.125 C-8.7448289 10.26950361 -18.88493431 10.39629592 -27.3125 5.125 C-29.0859375 2.984375 -29.0859375 2.984375 -30.3125 1.125 C-29.69503906 1.1971875 -29.07757813 1.269375 -28.44140625 1.34375 C-18.54060844 2.82447049 -18.54060844 2.82447049 -8.9453125 1.12109375 C-5.80613278 -0.0665781 -3.34437645 -0.07350278 0 0 Z " fill="#ADBBBA" transform="translate(41.3125,51.875)"/>
<path d="M0 0 C3.1875 0.875 3.1875 0.875 6 2 C6 2.66 6 3.32 6 4 C6.66 4 7.32 4 8 4 C8.05399736 5.45792884 8.09279177 6.91642712 8.125 8.375 C8.14820313 9.18710938 8.17140625 9.99921875 8.1953125 10.8359375 C8 13 8 13 6 15 C3.23452009 16.87657565 2.15538306 17.01792881 -1.25 16.625 C-2.1575 16.41875 -3.065 16.2125 -4 16 C-4 15.34 -4 14.68 -4 14 C-4.66 13.67 -5.32 13.34 -6 13 C-6 10.03 -6 7.06 -6 4 C-5.34 4 -4.68 4 -4 4 C-3.67 3.34 -3.34 2.68 -3 2 C-2.01 1.34 -1.02 0.68 0 0 Z " fill="#44A2DD" transform="translate(32,70)"/>
<path d="M0 0 C6.75 0.75 6.75 0.75 9 3 C9 3.66 9 4.32 9 5 C7.68 5 6.36 5 5 5 C5 5.66 5 6.32 5 7 C6.32 7 7.64 7 9 7 C9.33 8.32 9.66 9.64 10 11 C2.12253829 14.41356674 2.12253829 14.41356674 -2.5625 12.6875 C-3.366875 12.130625 -4.17125 11.57375 -5 11 C-5 9.68 -5 8.36 -5 7 C-3.35 7 -1.7 7 0 7 C0 6.34 0 5.68 0 5 C-1.32 5 -2.64 5 -4 5 C-3.67 3.68 -3.34 2.36 -3 1 C-2.34 1 -1.68 1 -1 1 C-0.67 1.33 -0.34 1.66 0 2 C0 1.34 0 0.68 0 0 Z M4 9 C5 11 5 11 5 11 Z " fill="#4799D3" transform="translate(42,53)"/>
<path d="M0 0 C2 2 2 2 2 6 C2.66 6 3.32 6 4 6 C4 6.99 4 7.98 4 9 C13.40556996 10.43459958 13.40556996 10.43459958 22 7 C27.70986611 5.0967113 35.25026279 5.27507884 41 7 C42.375 9.0625 42.375 9.0625 43 11 C42.2575 10.835 41.515 10.67 40.75 10.5 C33.48915572 9.53188743 26.80977082 9.13566105 20 12 C13.6404633 12.81594056 6.00988594 12.17794157 0 10 C-1.58531134 7.69156418 -2.09714626 6.66059454 -1.6875 3.875 C-1 2 -1 2 0 0 Z " fill="#C9D9DE" transform="translate(10,43)"/>
<path d="M0 0 C1.32 0.33 2.64 0.66 4 1 C4 3.97 4 6.94 4 10 C-0.455 10.495 -0.455 10.495 -5 11 C-5.144375 10.236875 -5.28875 9.47375 -5.4375 8.6875 C-5.9632594 5.91827092 -5.9632594 5.91827092 -7 3 C-5.5459375 2.814375 -5.5459375 2.814375 -4.0625 2.625 C-2.5465625 2.315625 -2.5465625 2.315625 -1 2 C-0.67 1.34 -0.34 0.68 0 0 Z " fill="#3697DA" transform="translate(68,66)"/>
<path d="M0 0 C6.75 0.75 6.75 0.75 9 3 C11.66913225 2.95600331 14.22489745 2.81343891 16.875 2.5625 C25.58587052 1.77556089 25.58587052 1.77556089 29 3 C29 3.66 29 4.32 29 5 C19.39904833 7.18284114 9.66396767 7.07249389 1 2 C0.67 1.34 0.34 0.68 0 0 Z " fill="#B5B7AE" transform="translate(13,55)"/>
<path d="M0 0 C0.33 1.32 0.66 2.64 1 4 C1.66 4 2.32 4 3 4 C3.66 4 4.32 4 5 4 C5.33 3.01 5.66 2.02 6 1 C6.99 1 7.98 1 9 1 C8.1875 4.4375 8.1875 4.4375 7 8 C6.01 8.33 5.02 8.66 4 9 C4 8.34 4 7.68 4 7 C0.7 7 -2.6 7 -6 7 C-6 6.01 -6 5.02 -6 4 C-3 1.8125 -3 1.8125 0 0 Z " fill="#C0CFD7" transform="translate(81,46)"/>
<path d="M0 0 C2 2 2 2 2 6 C2.66 6 3.32 6 4 6 C4 6.99 4 7.98 4 9 C9.28 9.33 14.56 9.66 20 10 C20 10.66 20 11.32 20 12 C13.36132771 12.21766139 6.31703755 12.28925121 0 10 C-1.58531134 7.69156418 -2.09714626 6.66059454 -1.6875 3.875 C-1 2 -1 2 0 0 Z " fill="#D7D7D5" transform="translate(10,43)"/>
<path d="M0 0 C0.66 0.33 1.32 0.66 2 1 C4.11436981 0.76507002 6.22835641 0.52571182 8.33935547 0.26220703 C13.0737638 -0.20436982 17.809899 -0.10338935 22.5625 -0.0625 C24.07553711 -0.05573242 24.07553711 -0.05573242 25.61914062 -0.04882812 C28.07949147 -0.03716769 30.53971239 -0.02080378 33 0 C33 0.33 33 0.66 33 1 C29.18803848 1.33968421 25.3753608 1.67057595 21.5625 2 C20.49322266 2.09539063 19.42394531 2.19078125 18.32226562 2.2890625 C12.18697229 2.81440872 6.15747494 3.10359579 0 3 C0 2.01 0 1.02 0 0 Z " fill="#A1B6B7" transform="translate(51,55)"/>
<path d="M0 0 C0.78028564 0.05760498 1.56057129 0.11520996 2.36450195 0.17456055 C3.21206055 0.2293457 4.05961914 0.28413086 4.93286133 0.34057617 C5.81393555 0.4134082 6.69500977 0.48624023 7.6027832 0.5612793 C8.49545898 0.62250977 9.38813477 0.68374023 10.30786133 0.74682617 C12.51174906 0.90003762 14.71352526 1.06786063 16.9152832 1.2487793 C17.2452832 2.2387793 17.5752832 3.2287793 17.9152832 4.2487793 C6.5302832 3.7537793 6.5302832 3.7537793 -5.0847168 3.2487793 C-2.0847168 0.2487793 -2.0847168 0.2487793 0 0 Z " fill="#AFC4C6" transform="translate(68.084716796875,51.751220703125)"/>
<path d="M0 0 C5.61 0 11.22 0 17 0 C17 0.33 17 0.66 17 1 C15.02 1.33 13.04 1.66 11 2 C11 3.32 11 4.64 11 6 C9.68 6 8.36 6 7 6 C6.67 6.66 6.34 7.32 6 8 C6 7.01 6 6.02 6 5 C5.01 4.67 4.02 4.34 3 4 C3.66 3.34 4.32 2.68 5 2 C3.35 1.67 1.7 1.34 0 1 C0 0.67 0 0.34 0 0 Z " fill="#548EB1" transform="translate(57,62)"/>
<path d="M0 0 C0.57105469 0.0721875 1.14210938 0.144375 1.73046875 0.21875 C8.83666412 1.03217777 15.85302234 1.10081943 23 1 C22.67 1.99 22.34 2.98 22 4 C13.94635715 4.33608711 7.50216736 4.0517291 0 1 C0 0.67 0 0.34 0 0 Z " fill="#C8CBC7" transform="translate(11,53)"/>
<path d="M0 0 C1.65 0 3.3 0 5 0 C4.29977385 4.43476564 3.14753592 5.85246408 0 9 C0 7.68 0 6.36 0 5 C-1.32 5 -2.64 5 -4 5 C-3.67 3.68 -3.34 2.36 -3 1 C-2.34 1 -1.68 1 -1 1 C-0.67 1.33 -0.34 1.66 0 2 C0 1.34 0 0.68 0 0 Z " fill="#6DA2C9" transform="translate(42,53)"/>
<path d="M0 0 C1.32 0.66 2.64 1.32 4 2 C4 2.66 4 3.32 4 4 C2.68 4 1.36 4 0 4 C0 4.66 0 5.32 0 6 C0.99 6 1.98 6 3 6 C2.67 7.32 2.34 8.64 2 10 C1.34 10 0.68 10 0 10 C-0.66 9.34 -1.32 8.68 -2 8 C-2.99 8.495 -2.99 8.495 -4 9 C-4 7.35 -4 5.7 -4 4 C-3.01 3.67 -2.02 3.34 -1 3 C-0.67 2.01 -0.34 1.02 0 0 Z " fill="#49A5DD" transform="translate(47,54)"/>
<path d="M0 0 C0 0.66 0 1.32 0 2 C-3.99795892 2.95619733 -7.70803922 3.1039592 -11.8125 3.0625 C-12.97394531 3.05347656 -14.13539062 3.04445313 -15.33203125 3.03515625 C-16.21246094 3.02355469 -17.09289062 3.01195312 -18 3 C-18 2.67 -18 2.34 -18 2 C-15.36 2 -12.72 2 -10 2 C-10 1.34 -10 0.68 -10 0 C-6.30458414 -0.95024979 -3.69541586 -0.95024979 0 0 Z " fill="#96A9A5" transform="translate(42,58)"/>
<path d="M0 0 C1.5 1.375 1.5 1.375 3 3 C3 3.66 3 4.32 3 5 C2.01 5 1.02 5 0 5 C0 5.66 0 6.32 0 7 C0.99 6.67 1.98 6.34 3 6 C2.67 6.99 2.34 7.98 2 9 C-0.0625 9.6875 -0.0625 9.6875 -2 10 C-2 7.36 -2 4.72 -2 2 C-1.34 2 -0.68 2 0 2 C0 1.34 0 0.68 0 0 Z " fill="#57A9DE" transform="translate(28,72)"/>
<path d="M0 0 C3.96 0 7.92 0 12 0 C12 0.33 12 0.66 12 1 C10.35 1 8.7 1 7 1 C7.33 2.32 7.66 3.64 8 5 C7.34 4.67 6.68 4.34 6 4 C6 3.34 6 2.68 6 2 C3.36 2.66 0.72 3.32 -2 4 C-1.34 2.68 -0.68 1.36 0 0 Z " fill="#B0C4CC" transform="translate(35,52)"/>
<path d="M0 0 C1.32 0 2.64 0 4 0 C4.33 1.32 4.66 2.64 5 4 C0.545 4.495 0.545 4.495 -4 5 C-4 4.34 -4 3.68 -4 3 C-3.01 2.67 -2.02 2.34 -1 2 C-0.67 1.34 -0.34 0.68 0 0 Z " fill="#4DA5DF" transform="translate(67,72)"/>
<path d="M0 0 C0.5534764 2.07553648 1 3.84365964 1 6 C-1.64 6 -4.28 6 -7 6 C-2.25 1.125 -2.25 1.125 0 0 Z " fill="#CEDCE2" transform="translate(81,46)"/>
<path d="M0 0 C0.94875 0.350625 1.8975 0.70125 2.875 1.0625 C2.545 2.0525 2.215 3.0425 1.875 4.0625 C-0.6 3.0725 -0.6 3.0725 -3.125 2.0625 C-3.455 2.7225 -3.785 3.3825 -4.125 4.0625 C-4.455 2.7425 -4.785 1.4225 -5.125 0.0625 C-3.125 -0.9375 -3.125 -0.9375 0 0 Z " fill="#4A8BC1" transform="translate(35.125,70.9375)"/>
<path d="M0 0 C0.66 0 1.32 0 2 0 C1.67 1.65 1.34 3.3 1 5 C-0.98 5.33 -2.96 5.66 -5 6 C-3.38405168 3.95880212 -1.7143618 1.95927063 0 0 Z " fill="#C1D3D8" transform="translate(67,47)"/>
<path d="M0 0 C6.0546875 -0.1953125 6.0546875 -0.1953125 8 0 C8.66 0.66 9.32 1.32 10 2 C8.66666667 2.33333333 7.33333333 2.66666667 6 3 C4.948125 3.309375 4.948125 3.309375 3.875 3.625 C2 4 2 4 0 3 C0 2.01 0 1.02 0 0 Z " fill="#4588C2" transform="translate(62,76)"/>
<path d="M0 0 C1.32 0.33 2.64 0.66 4 1 C4 3.31 4 5.62 4 8 C2 6.25 2 6.25 0 4 C0 2.68 0 1.36 0 0 Z " fill="#4692D1" transform="translate(68,66)"/>
<path d="M0 0 C0.86625 0.3403125 0.86625 0.3403125 1.75 0.6875 C-0.56 2.0075 -2.87 3.3275 -5.25 4.6875 C-5.58 4.0275 -5.91 3.3675 -6.25 2.6875 C-2.80384615 -0.38942308 -2.80384615 -0.38942308 0 0 Z " fill="#D9E3E7" transform="translate(35.25,49.3125)"/>
<path d="M0 0 C1.32 0 2.64 0 4 0 C4 1.32 4 2.64 4 4 C2.68 4.33 1.36 4.66 0 5 C0 3.35 0 1.7 0 0 Z " fill="#3C88C7" transform="translate(58,67)"/>
<path d="M0 0 C3.63 0 7.26 0 11 0 C10.67 0.66 10.34 1.32 10 2 C6.7 1.67 3.4 1.34 0 1 C0 0.67 0 0.34 0 0 Z " fill="#92A9A3" transform="translate(25,62)"/>
<path d="M0 0 C3.63 0 7.26 0 11 0 C11 0.33 11 0.66 11 1 C7.37 1 3.74 1 0 1 C0 0.67 0 0.34 0 0 Z " fill="#E9F3FA" transform="translate(39,9)"/>
<path d="M0 0 C0.33 0 0.66 0 1 0 C1 2.97 1 5.94 1 9 C0.67 9 0.34 9 0 9 C0 6.03 0 3.06 0 0 Z " fill="#E8E7E6" transform="translate(6,39)"/>
<path d="M0 0 C1.65 0 3.3 0 5 0 C5 0.33 5 0.66 5 1 C3.35 1 1.7 1 0 1 C0 0.67 0 0.34 0 0 Z " fill="#FAFCFE" transform="translate(68,21)"/>
<path d="M0 0 C1 4 1 4 1 4 Z " fill="#4A96E6" transform="translate(41,79)"/>
<path d="M0 0 C1 4 1 4 1 4 Z " fill="#4DB1E8" transform="translate(24,79)"/>
<path d="M0 0 C1 4 1 4 1 4 Z " fill="#1C9AC6" transform="translate(41,74)"/>
<path d="M0 0 C1 4 1 4 1 4 Z " fill="#3980D9" transform="translate(24,74)"/>
<path d="M0 0 C1 4 1 4 1 4 Z " fill="#5490D5" transform="translate(73,72)"/>
<path d="M0 0 C1 4 1 4 1 4 Z " fill="#5589D4" transform="translate(73,67)"/>
<path d="M0 0 C4 1 4 1 4 1 Z " fill="#B2B2AA" transform="translate(20,61)"/>
<path d="" fill="#1488EF" transform="translate(0,0)"/>
<path d="M0 0 C3 1 3 1 3 1 Z " fill="#FEFEFE" transform="translate(73,22)"/>
<path d="M0 0 C3 1 3 1 3 1 Z " fill="#E1FAFD" transform="translate(50,10)"/>
<path d="M0 0 C3 1 3 1 3 1 Z " fill="#EAF2F8" transform="translate(36,10)"/>
<path d="M0 0 C2 1 2 1 2 1 Z " fill="#51A4E5" transform="translate(38,84)"/>
<path d="M0 0 C2 1 2 1 2 1 Z " fill="#66ACED" transform="translate(26,84)"/>
<path d="M0 0 C2 1 2 1 2 1 Z " fill="#448DC8" transform="translate(64,81)"/>
<path d="" fill="#377ECF" transform="translate(0,0)"/>
<path d="M0 0 C2 1 2 1 2 1 Z " fill="#339DEF" transform="translate(43,68)"/>
<path d="M0 0 C2 1 2 1 2 1 Z " fill="#5094C7" transform="translate(32,68)"/>
<path d="M0 0 C2 1 2 1 2 1 Z " fill="#55BDFF" transform="translate(45,67)"/>
<path d="M0 0 C2 1 2 1 2 1 Z " fill="#4EA2FF" transform="translate(41,67)"/>
<path d="M0 0 C2 1 2 1 2 1 Z " fill="#4096CA" transform="translate(47,66)"/>
<path d="M0 0 C2 1 2 1 2 1 Z " fill="#3A81C7" transform="translate(39,66)"/>
<path d="M0 0 C2 1 2 1 2 1 Z " fill="#449BD6" transform="translate(70,65)"/>
<path d="M0 0 C2 1 2 1 2 1 Z " fill="#3285BE" transform="translate(58,65)"/>
<path d="M0 0 C2 1 2 1 2 1 Z " fill="#3F8DB5" transform="translate(37,65)"/>
<path d="M0 0 C2 1 2 1 2 1 Z " fill="#558CDE" transform="translate(68,64)"/>
<path d="M0 0 C2 1 2 1 2 1 Z " fill="#99A59F" transform="translate(79,60)"/>
<path d="M0 0 C2 1 2 1 2 1 Z " fill="#B4B2B1" transform="translate(18,60)"/>
<path d="M0 0 C2 1 2 1 2 1 Z " fill="#C1BEBE" transform="translate(16,59)"/>
<path d="M0 0 C2 1 2 1 2 1 Z " fill="#BAB5AC" transform="translate(14,58)"/>
<path d="" fill="#BFCFD5" transform="translate(0,0)"/>
<path d="" fill="#AECFD4" transform="translate(0,0)"/>
<path d="" fill="#DEDBD3" transform="translate(0,0)"/>
<path d="" fill="#F0F1F3" transform="translate(0,0)"/>
<path d="" fill="#FBFCFD" transform="translate(0,0)"/>
<path d="" fill="#FAFEFE" transform="translate(0,0)"/>
<path d="M0 0 C2 1 2 1 2 1 Z " fill="#F7FBFE" transform="translate(17,27)"/>
<path d="M0 0 C2 1 2 1 2 1 Z " fill="#FEFEFE" transform="translate(80,25)"/>
<path d="M0 0 C2 1 2 1 2 1 Z " fill="#FEFEFE" transform="translate(77,23)"/>
<path d="" fill="#F6F9FA" transform="translate(0,0)"/>
<path d="M0 0 C2 1 2 1 2 1 Z " fill="#ECF0FE" transform="translate(61,15)"/>
<path d="M0 0 C2 1 2 1 2 1 Z " fill="#F4FBFE" transform="translate(58,13)"/>
<path d="M0 0 C2 1 2 1 2 1 Z " fill="#EEF3F3" transform="translate(30,13)"/>
<path d="M0 0 C2 1 2 1 2 1 Z " fill="#F6FBFE" transform="translate(56,12)"/>
<path d="M0 0 C2 1 2 1 2 1 Z " fill="#F2FAFB" transform="translate(34,11)"/>
<path d="" fill="#3F73AC" transform="translate(0,0)"/>
<path d="" fill="#4179C4" transform="translate(0,0)"/>
<path d="" fill="#1396C3" transform="translate(0,0)"/>
<path d="" fill="#0AA9D3" transform="translate(0,0)"/>
<path d="" fill="#3788D5" transform="translate(0,0)"/>
<path d="" fill="#5F92D7" transform="translate(0,0)"/>
<path d="" fill="#589AED" transform="translate(0,0)"/>
<path d="" fill="#3984BC" transform="translate(0,0)"/>
<path d="" fill="#2AA1A3" transform="translate(0,0)"/>
<path d="" fill="#ADB6B3" transform="translate(0,0)"/>
<path d="" fill="#A0ADAC" transform="translate(0,0)"/>
<path d="" fill="#B4B1AB" transform="translate(0,0)"/>
<path d="" fill="#A2B1B3" transform="translate(0,0)"/>
<path d="" fill="#D7BAB5" transform="translate(0,0)"/>
<path d="" fill="#A9B6BB" transform="translate(0,0)"/>
<path d="" fill="#DDC5BF" transform="translate(0,0)"/>
<path d="" fill="#BBCBD1" transform="translate(0,0)"/>
<path d="" fill="#C8C4BE" transform="translate(0,0)"/>
<path d="" fill="#E3DED8" transform="translate(0,0)"/>
<path d="" fill="#D6D0CC" transform="translate(0,0)"/>
<path d="" fill="#F3FBF8" transform="translate(0,0)"/>
<path d="" fill="#FFFBFD" transform="translate(0,0)"/>
<path d="" fill="#F9FDFF" transform="translate(0,0)"/>
<path d="" fill="#FFFFFF" transform="translate(0,0)"/>
<path d="" fill="#FDFEFF" transform="translate(0,0)"/>
<path d="" fill="#FBFBFE" transform="translate(0,0)"/>
<path d="" fill="#FFFFFF" transform="translate(0,0)"/>
<path d="" fill="#F3F8FA" transform="translate(0,0)"/>
<path d="" fill="#FFFEFE" transform="translate(0,0)"/>
<path d="" fill="#F3F7FA" transform="translate(0,0)"/>
<path d="" fill="#FDFFFF" transform="translate(0,0)"/>
<path d="" fill="#FDFDFE" transform="translate(0,0)"/>
<path d="" fill="#FDFFFF" transform="translate(0,0)"/>
<path d="" fill="#FFFFFF" transform="translate(0,0)"/>
<path d="" fill="#FEFEFE" transform="translate(0,0)"/>
<path d="" fill="#F2F9FB" transform="translate(0,0)"/>
<path d="" fill="#E8FEFF" transform="translate(0,0)"/>
<path d="" fill="#FBFFFF" transform="translate(0,0)"/>
<path d="" fill="#EDFCFD" transform="translate(0,0)"/>
<path d="" fill="#F4F9FB" transform="translate(0,0)"/>
<path d="" fill="#FBFDFF" transform="translate(0,0)"/>
<path d="" fill="#FFFFFF" transform="translate(0,0)"/>
<path d="" fill="#F4FAFF" transform="translate(0,0)"/>
<path d="" fill="#FFFFFF" transform="translate(0,0)"/>
<path d="" fill="#ECF6FD" transform="translate(0,0)"/>
<path d="" fill="#D7E3FF" transform="translate(0,0)"/>
<path d="" fill="#ECF0EF" transform="translate(0,0)"/>
<path d="" fill="#DFFBFE" transform="translate(0,0)"/>
<path d="" fill="#F3F9FD" transform="translate(0,0)"/>
<path d="" fill="#D0D6FC" transform="translate(0,0)"/>
</svg>
