
<svg version="1.1" xmlns="http://www.w3.org/2000/svg" width="64" height="64">
<path d="M0 0 C2.4375 0.8125 2.4375 0.8125 5.4375 2.8125 C7.39914156 2.86776725 7.39914156 2.86776725 9.4375 2.625 C11.57421875 2.5625 11.57421875 2.5625 13.4375 2.8125 C15.25 5.125 15.25 5.125 16.4375 7.8125 C18.27375497 9.98261951 19.47904048 10.8308551 22.125 12 C22.888125 12.598125 23.65125 13.19625 24.4375 13.8125 C24.5625 17.75 24.5625 17.75 24.41015625 19.890625 C24.44832804 22.57355641 25.81225443 23.76327732 27.4375 25.8125 C27.1809556 29.31860679 26.4189066 30.8403901 24.4375 33.8125 C24.38223275 35.77414156 24.38223275 35.77414156 24.625 37.8125 C24.6875 39.94921875 24.6875 39.94921875 24.4375 41.8125 C22.125 43.625 22.125 43.625 19.4375 44.8125 C17.26738049 46.64875497 16.4191449 47.85404048 15.25 50.5 C14.651875 51.263125 14.05375 52.02625 13.4375 52.8125 C9.5 52.9375 9.5 52.9375 7.359375 52.78515625 C4.67644359 52.82332804 3.48672268 54.18725443 1.4375 55.8125 C-2.06860679 55.5559556 -3.5903901 54.7939066 -6.5625 52.8125 C-8.52414156 52.75723275 -8.52414156 52.75723275 -10.5625 53 C-12.69921875 53.0625 -12.69921875 53.0625 -14.5625 52.8125 C-16.375 50.5 -16.375 50.5 -17.5625 47.8125 C-19.39875497 45.64238049 -20.60404048 44.7941449 -23.25 43.625 C-24.013125 43.026875 -24.77625 42.42875 -25.5625 41.8125 C-25.6875 37.875 -25.6875 37.875 -25.53515625 35.734375 C-25.57332804 33.05144359 -26.93725443 31.86172268 -28.5625 29.8125 C-28.3059556 26.30639321 -27.5439066 24.7846099 -25.5625 21.8125 C-25.50723275 19.85085844 -25.50723275 19.85085844 -25.75 17.8125 C-25.8125 15.67578125 -25.8125 15.67578125 -25.5625 13.8125 C-23.25 12 -23.25 12 -20.5625 10.8125 C-18.39238049 8.97624503 -17.5441449 7.77095952 -16.375 5.125 C-15.776875 4.361875 -15.17875 3.59875 -14.5625 2.8125 C-10.625 2.6875 -10.625 2.6875 -8.484375 2.83984375 C-4.77851487 2.7871181 -3.84652962 -0.28145339 0 0 Z " fill="#FBC55B" transform="translate(32.5625,4.1875)"/>
<path d="M0 0 C3.652579 2.64832224 5.36785711 6.09575883 6.76171875 10.27734375 C7.54500412 16.5771961 7.07703141 21.37122796 3.30078125 26.58203125 C-0.59827568 30.87693152 -4.39066044 32.49380125 -10.17578125 32.83984375 C-16.89569268 32.55345483 -21.20591866 29.46604193 -25.67578125 24.65234375 C-28.46879108 20.40696881 -28.87490339 16.23769123 -28.23828125 11.27734375 C-26.12520279 4.92662425 -22.82843343 1.21796655 -16.92578125 -1.97265625 C-10.5801138 -3.74354019 -5.68691484 -3.13953452 0 0 Z " fill="#FEDE6B" transform="translate(42.23828125,16.72265625)"/>
<path d="M0 0 C3.96 0 7.92 0 12 0 C12 0.66 12 1.32 12 2 C9.78704384 3.10647808 8.45327301 3.19588368 6 3.25 C5.29875 3.27578125 4.5975 3.3015625 3.875 3.328125 C3.25625 3.21984375 2.6375 3.1115625 2 3 C1.34 2.01 0.68 1.02 0 0 Z " fill="#FBA449" transform="translate(26,37)"/>
<path d="M0 0 C1.65 0.33 3.3 0.66 5 1 C4.67 1.99 4.34 2.98 4 4 C2.68 3.34 1.36 2.68 0 2 C0 2.66 0 3.32 0 4 C-0.66 4 -1.32 4 -2 4 C-1.34 2.68 -0.68 1.36 0 0 Z " fill="#FBA44A" transform="translate(37,24)"/>
</svg>